<?xml version="1.0" encoding="UTF-8"?>
<svg id="fundo" xmlns="http://www.w3.org/2000/svg" viewBox="0 0 4401.86 3378">
  <defs>
    <style>
      .cls-1 {
        fill: #c9c3c0;
      }

      .cls-2 {
        fill: #212851;
      }

      .cls-3 {
        fill: #abbdef;
      }

      .cls-4 {
        fill: #232d57;
      }

      .cls-5 {
        fill: #cc7746;
      }

      .cls-6 {
        fill: #91acea;
      }

      .cls-7 {
        fill: #c9d3ef;
      }

      .cls-8 {
        fill: #e0dad7;
      }

      .cls-9 {
        fill: #91e0f2;
      }

      .cls-10 {
        fill: #8dffc6;
      }

      .cls-11 {
        fill: #c2d3f9;
      }

      .cls-12 {
        fill: #57f2aa;
      }

      .cls-13 {
        fill: #1b1f3f;
      }

      .cls-14 {
        fill: #41af75;
      }

      .cls-15 {
        fill: #d4cdca;
      }

      .cls-16 {
        fill: #302a59;
      }

      .cls-17 {
        fill: #af6031;
      }

      .cls-18 {
        fill: #fff;
      }

      .cls-19 {
        fill: #d0ddff;
      }

      .cls-20 {
        fill: #1b2449;
      }

      .cls-21 {
        fill: #52498c;
      }

      .cls-22 {
        fill: #9dbaf9;
      }

      .cls-23 {
        fill: #ffb1a4;
      }

      .cls-24 {
        fill: #bacdff;
      }

      .cls-25 {
        fill: #1c284c;
      }

      .cls-26 {
        fill: #db8653;
      }

      .cls-27 {
        fill: #65e8ef;
      }

      .cls-28 {
        fill: #50d894;
      }

      .cls-29 {
        fill: #293463;
      }

      .cls-30 {
        fill: #dbe5ff;
      }

      .cls-31 {
        fill: #e37e73;
      }
    </style>
  </defs>
  <g>
    <g>
      <g>
        <polygon class="cls-17" points="1545.78 3378 1344.09 3378 1904.09 2635.3 2105.78 2635.3 1545.78 3378"/>
        <rect class="cls-17" x="3262.77" y="2363" width="220.16" height="1015"/>
        <polygon class="cls-17" points="3470.68 3378 3250.53 3378 2576.72 2363 2796.88 2363 3470.68 3378"/>
        <polygon class="cls-17" points="819.88 3378 655.13 3378 313.48 2515.06 478.23 2515.06 819.88 3378"/>
      </g>
      <g>
        <polygon class="cls-5" points="0 2571.02 2149.04 2723.69 4072.79 2355.91 4072.79 2218.01 2675.95 2186.19 0 2433.12 0 2571.02"/>
        <polygon class="cls-26" points="0 2433.12 2149.04 2585.79 4072.79 2218.01 2489.56 2093.64 0 2433.12"/>
      </g>
    </g>
    <g>
      <g>
        <ellipse class="cls-9" cx="2684.32" cy="2159.77" rx="103.67" ry="12.36"/>
        <path class="cls-9" d="M2533.31,1851.07s-9.36,191.99,47.34,308.71h207.34s52.53-74.44,47.34-308.71h-302.01Z"/>
        <ellipse class="cls-16" cx="2684.32" cy="1851.07" rx="151.01" ry="18.01"/>
        <path class="cls-9" d="M2828.42,2109.54h-34.91v-24.01h34.91c16.72,0,30.92-11.4,34.53-27.73l21.53-97.34c2.33-10.52-.21-21.38-6.96-29.78-6.75-8.4-16.8-13.22-27.58-13.22h-36.12v-24.01h36.12c18.09,0,34.97,8.09,46.3,22.2,11.33,14.11,15.59,32.33,11.68,50l-21.53,97.34c-2.91,13.15-10.3,25.04-20.8,33.48-10.5,8.43-23.71,13.08-37.18,13.08Z"/>
      </g>
      <g>
        <g>
          <g>
            <path class="cls-12" d="M835.18,114.92l464.92,1304.75c3.06,9.05,12.07,14.69,21.55,13.48l735.86-94.57c12.54-1.6,20.5-14.27,16.48-26.26L1620.19,13.7c-3.01-9.02-11.94-14.68-21.38-13.56l-746.98,88.44c-12.66,1.5-20.72,14.26-16.65,26.34Z"/>
            <path class="cls-28" d="M1641.74,75.68l-21.55-61.98c-3.01-9.02-11.94-14.68-21.38-13.56l-746.98,88.44c-12.66,1.5-20.72,14.26-16.65,26.34l19.14,53.7,787.42-92.95Z"/>
          </g>
          <g>
            <g>
              <path class="cls-28" d="M1073.6,325.94l-76.53,9.48c-4.6.57-8.98-2.09-10.59-6.44l-27.67-74.5c-2.25-6.05,1.75-12.61,8.15-13.39l77.42-9.48c4.63-.57,9.04,2.15,10.61,6.54l26.78,74.5c2.17,6.03-1.82,12.51-8.17,13.29Z"/>
              <path class="cls-28" d="M1135.56,498.41l-74.75,8.98c-4.6.55-8.98-2.13-10.58-6.49l-27.13-74.25c-2.21-6.04,1.79-12.56,8.17-13.35l75.12-9.19c4.63-.57,9.04,2.15,10.61,6.54l26.77,74.46c2.17,6.04-1.84,12.53-8.21,13.3Z"/>
              <path class="cls-28" d="M1190.6,660.18l-70.79,8.27c-4.61.54-8.99-2.17-10.56-6.54l-26.57-73.84c-2.17-6.02,1.81-12.5,8.16-13.3l70.61-8.83c4.64-.58,9.06,2.13,10.64,6.53l26.74,74.4c2.18,6.05-1.85,12.56-8.24,13.3Z"/>
              <path class="cls-28" d="M1246.41,822.14l-77.55,9.49c-4.63.57-9.04-2.15-10.61-6.54l-26.78-74.48c-2.17-6.03,1.82-12.52,8.19-13.3l77.55-9.49c4.63-.57,9.04,2.15,10.61,6.54l26.78,74.48c2.17,6.03-1.82,12.52-8.19,13.3Z"/>
            </g>
            <g>
              <path class="cls-28" d="M1610.74,163.12l-482.29,58.21c-6.37.77-10.37,7.26-8.2,13.3l26.77,74.47c1.58,4.39,5.98,7.1,10.6,6.54l482.72-58.56c6.4-.78,10.4-7.31,8.18-13.36l-27.21-74.13c-1.6-4.35-5.97-7.03-10.58-6.48Z"/>
              <g>
                <path class="cls-28" d="M1413.86,464.37l-194.21,23.77c-4.63.57-9.04-2.15-10.61-6.54l-26.78-74.48c-2.17-6.03,1.82-12.52,8.19-13.3l194.21-23.77c4.63-.57,9.04,2.15,10.61,6.54l26.78,74.48c2.17,6.03-1.82,12.52-8.19,13.3Z"/>
                <path class="cls-28" d="M1673.69,335.61l-231.05,27.4c-6.38.76-10.4,7.25-8.22,13.3l26.77,74.46c1.58,4.38,5.97,7.09,10.59,6.54l231.64-27.84c6.41-.77,10.42-7.33,8.18-13.38l-27.36-74.02c-1.6-4.33-5.96-7-10.55-6.46Z"/>
              </g>
              <g>
                <path class="cls-28" d="M1495.39,792.34l-159.38,19.51c-4.63.57-9.04-2.15-10.61-6.54l-26.78-74.48c-2.17-6.03,1.82-12.52,8.19-13.3l159.38-19.51c4.63-.57,9.04,2.15,10.61,6.54l26.78,74.48c2.17,6.03-1.82,12.52-8.19,13.3Z"/>
                <path class="cls-28" d="M1792.21,658.72l-268.06,32.23c-6.37.77-10.38,7.26-8.21,13.3l26.79,74.53c1.57,4.36,5.92,7.07,10.52,6.55l268.96-30.28c6.42-.72,10.47-7.25,8.28-13.33l-27.69-76.49c-1.58-4.37-5.97-7.07-10.59-6.52Z"/>
              </g>
              <g>
                <path class="cls-28" d="M1562.11,615.64l-284.3,34.33c-4.63.56-9.02-2.15-10.6-6.54l-26.77-74.48c-2.17-6.04,1.83-12.53,8.2-13.3l284.3-34.33c4.63-.56,9.02,2.15,10.6,6.54l26.77,74.48c2.17,6.04-1.83,12.53-8.2,13.3Z"/>
                <path class="cls-28" d="M1733.08,497.82l-142.13,16.5c-6.39.74-10.43,7.25-8.25,13.3l26.76,74.45c1.57,4.37,5.95,7.08,10.56,6.54l142.5-16.65c6.41-.75,10.44-7.29,8.22-13.35l-27.13-74.29c-1.59-4.34-5.94-7.03-10.54-6.5Z"/>
              </g>
            </g>
            <path class="cls-28" d="M1300.39,824.31c-1.51,0-2.93-.94-3.48-2.44l-212.09-589.98c-.69-1.92.31-4.04,2.23-4.73,1.92-.69,4.04.31,4.73,2.23l212.09,589.98c.69,1.92-.31,4.04-2.23,4.73-.41.15-.84.22-1.25.22Z"/>
          </g>
        </g>
        <g>
          <g>
            <g>
              <path class="cls-27" d="M1375,1342.44l-861.72,104.75c-11.51,1.44-22.54-5.07-26.85-15.84l-231.46-578.89c-6.28-15.72,4.2-33.08,21.04-34.83l857.54-87.51c11.18-1.16,21.81,5.13,26.16,15.5l235.64,561.65c6.53,15.57-3.59,33.07-20.35,35.17Z"/>
              <path class="cls-9" d="M1187.13,810.97l-27.42-65.36c-4.35-10.37-14.98-16.66-26.16-15.5l-857.54,87.51c-16.84,1.75-27.32,19.12-21.04,34.83l20.22,50.58,911.94-92.06Z"/>
            </g>
            <path class="cls-18" d="M589.5,1241.1l542.24-60.47c39.5-4.41,53.18-50.83,25.27-86.28-21.74-27.61-55.31-49.1-105.8-37.4,0,0-57.09-185.76-280.39-160.86-223.3,24.9-163.7,219.53-163.7,219.53,0,0-52.56-.62-77.97,26.88-33.51,36.28,8.36,104.39,60.34,98.59Z"/>
          </g>
          <g>
            <path class="cls-9" d="M360.13,1167.05c-3.79,0-7.02-2.91-7.35-6.76-.35-4.07,2.66-7.64,6.73-7.99l17.48-1.5c4.05-.35,7.64,2.66,7.99,6.73.35,4.07-2.66,7.64-6.73,7.99l-17.48,1.5c-.21.02-.43.03-.64.03Z"/>
            <path class="cls-9" d="M288.34,1692.23c-4.04,0-7.34-3.25-7.39-7.3-.05-4.08,3.22-7.43,7.3-7.47.77,0,1.55-.06,2.32-.16l31.42-3.99c4.04-.51,7.75,2.35,8.26,6.4.51,4.05-2.35,7.75-6.4,8.26l-31.44,3.99c-1.34.17-2.67.26-3.99.27-.03,0-.06,0-.09,0ZM357.48,1683.63c-3.67,0-6.85-2.73-7.32-6.46-.51-4.05,2.35-7.75,6.4-8.26l34.57-4.39c4.04-.51,7.75,2.35,8.26,6.4.51,4.05-2.35,7.75-6.4,8.26l-34.57,4.39c-.32.04-.63.06-.94.06ZM426.63,1674.85c-3.67,0-6.85-2.73-7.32-6.46-.51-4.05,2.35-7.75,6.4-8.26l34.57-4.39c4.05-.51,7.75,2.35,8.26,6.4.51,4.05-2.35,7.75-6.4,8.26l-34.57,4.39c-.32.04-.63.06-.94.06ZM261.79,1673.33c-3.02,0-5.86-1.87-6.95-4.87l-11.88-32.76c-1.39-3.84.59-8.07,4.43-9.46,3.84-1.39,8.07.59,9.46,4.43l11.88,32.76c1.39,3.84-.59,8.07-4.43,9.46-.83.3-1.68.44-2.52.44ZM495.77,1666.07c-3.67,0-6.85-2.73-7.32-6.46-.51-4.05,2.35-7.75,6.4-8.26l34.57-4.39c4.05-.51,7.75,2.35,8.26,6.4.51,4.05-2.35,7.75-6.4,8.26l-34.57,4.39c-.32.04-.63.06-.94.06ZM564.91,1657.29c-3.67,0-6.85-2.73-7.32-6.46-.51-4.05,2.35-7.75,6.4-8.26l34.57-4.39c4.05-.51,7.75,2.35,8.26,6.4.51,4.05-2.35,7.75-6.4,8.26l-34.57,4.39c-.32.04-.63.06-.94.06ZM634.05,1648.51c-3.67,0-6.85-2.73-7.32-6.46-.51-4.05,2.35-7.75,6.4-8.26l34.57-4.39c4.05-.51,7.75,2.35,8.26,6.4.51,4.05-2.35,7.75-6.4,8.26l-34.57,4.39c-.32.04-.63.06-.94.06ZM703.19,1639.73c-3.67,0-6.85-2.73-7.32-6.46-.51-4.05,2.35-7.75,6.4-8.26l34.57-4.39c4.05-.51,7.75,2.35,8.26,6.4.51,4.05-2.35,7.75-6.4,8.26l-34.57,4.39c-.32.04-.63.06-.94.06ZM772.33,1630.95c-3.67,0-6.85-2.73-7.32-6.46-.51-4.05,2.35-7.75,6.4-8.26l34.57-4.39c4.04-.51,7.75,2.35,8.26,6.4.51,4.05-2.35,7.75-6.4,8.26l-34.57,4.39c-.32.04-.63.06-.94.06ZM238.03,1607.81c-3.02,0-5.86-1.87-6.95-4.87l-11.88-32.76c-1.39-3.84.59-8.07,4.43-9.46,3.84-1.39,8.07.59,9.46,4.43l11.88,32.76c1.39,3.84-.59,8.07-4.43,9.46-.83.3-1.68.44-2.52.44ZM214.27,1542.29c-3.02,0-5.86-1.87-6.95-4.87l-11.88-32.76c-1.39-3.84.59-8.07,4.43-9.46,3.84-1.39,8.07.59,9.46,4.43l11.88,32.76c1.39,3.84-.59,8.07-4.43,9.46-.83.3-1.68.44-2.52.44ZM190.51,1476.77c-3.02,0-5.86-1.87-6.95-4.87l-11.88-32.76c-1.39-3.84.59-8.07,4.43-9.46,3.84-1.39,8.07.59,9.46,4.43l11.88,32.76c1.39,3.84-.59,8.07-4.43,9.46-.83.3-1.68.44-2.52.44ZM166.75,1411.25c-3.02,0-5.86-1.87-6.95-4.87l-11.88-32.76c-1.39-3.84.59-8.07,4.43-9.46,3.84-1.39,8.07.59,9.46,4.43l11.88,32.76c1.39,3.84-.59,8.07-4.43,9.46-.83.3-1.68.44-2.52.44ZM142.99,1345.73c-3.02,0-5.86-1.87-6.95-4.87l-11.88-32.76c-1.39-3.84.59-8.07,4.43-9.46,3.84-1.39,8.07.59,9.46,4.43l11.88,32.76c1.39,3.84-.59,8.07-4.43,9.46-.83.3-1.68.44-2.52.44ZM119.23,1280.21c-3.02,0-5.86-1.87-6.95-4.87l-11.88-32.76c-1.39-3.84.59-8.07,4.43-9.46,3.84-1.39,8.07.59,9.46,4.43l11.88,32.76c1.39,3.84-.59,8.07-4.43,9.46-.83.3-1.68.44-2.52.44ZM97.33,1214.26c-.06,0-.13,0-.19,0-4.08-.1-7.3-3.49-7.2-7.57.38-15.07,10.73-28.54,25.17-32.75,3.92-1.14,8.02,1.11,9.16,5.02,1.14,3.92-1.11,8.02-5.02,9.16-8.34,2.43-14.32,10.22-14.54,18.94-.1,4.02-3.39,7.2-7.38,7.2ZM151.81,1184.9c-3.79,0-7.02-2.91-7.35-6.76-.35-4.07,2.66-7.64,6.73-7.99l34.72-2.98c4.06-.35,7.64,2.67,7.99,6.73.35,4.06-2.66,7.64-6.73,7.99l-34.72,2.98c-.21.02-.43.03-.64.03ZM221.25,1178.95c-3.79,0-7.02-2.91-7.35-6.76-.35-4.07,2.66-7.64,6.73-7.99l34.72-2.98c4.06-.35,7.64,2.66,7.99,6.73.35,4.07-2.66,7.64-6.73,7.99l-34.72,2.98c-.21.02-.43.03-.64.03ZM290.69,1173c-3.8,0-7.02-2.91-7.35-6.76-.35-4.07,2.66-7.64,6.73-7.99l34.72-2.98c4.06-.35,7.64,2.67,7.99,6.73.35,4.07-2.66,7.64-6.73,7.99l-34.72,2.98c-.21.02-.43.03-.64.03ZM841.52,1622.16c-3.67,0-6.85-2.73-7.32-6.46-.51-4.05,2.35-7.75,6.4-8.26l17.41-2.21c4.05-.51,7.75,2.35,8.26,6.4.51,4.05-2.35,7.75-6.4,8.26l-17.41,2.21c-.32.04-.63.06-.94.06Z"/>
          </g>
        </g>
        <g>
          <g>
            <g>
              <path class="cls-4" d="M1986.59,2251.13v-28.48l-72.78,5.28c-30.31-3.54-69.33-5.53-115.79-5.53-140.26,0-302.44,18.11-392.07,42.37l-66.32,4.81v29.17c-1.5,19.08,68.95,32.4,189.22,32.4,162.61,0,354.68-24.35,429.01-54.38,22.96-9.28,28.21-15.45,28.73-25.65Z"/>
              <path class="cls-29" d="M1957.86,2245.84c-74.33,30.03-266.41,54.38-429.01,54.38s-234.17-24.35-159.84-54.38c74.33-30.03,266.41-54.38,429.01-54.38s234.17,24.34,159.84,54.38Z"/>
            </g>
            <path class="cls-4" d="M1737.06,2241s-15.32,13.56-91.06,13.56-91.06-13.56-91.06-13.56l-110.04-293.51h182.12l110.04,293.51Z"/>
          </g>
          <g>
            <g>
              <path class="cls-4" d="M2389.08,1942.84l-1320.38,195.61-388.98-1021.07c-4.41-11.57-2.51-24.6,5.01-34.43,6.92-9.05,17.4-14.69,28.77-15.47l1295.86-88.95,411.96,916.06c4.37,9.71,3.06,21.03-3.41,29.49l-2.45,3.2c-6.44,8.42-15.9,13.99-26.38,15.55Z"/>
              <path class="cls-25" d="M1068.7,2138.45l312.2-46.25-163.25-496.7c-3.84-11.69-15.49-18.97-27.69-17.31l-318.11,43.54,196.85,516.72Z"/>
              <path class="cls-29" d="M2411.19,1912.9l-1319.51,195.48-386.62-1014.89c-4.74-12.44,3.71-25.97,16.98-27.17l1310.31-117.86,389.44,945.79c3.37,8.18-1.84,17.34-10.59,18.64Z"/>
              <path class="cls-4" d="M1091.68,2108.39l280.86-41.61-154.89-471.29c-3.84-11.69-15.49-18.97-27.69-17.31l-285.38,39.06,187.1,491.14Z"/>
              <path class="cls-4" d="M2032.34,948.48l-424.28,38.16,194,481.69c4.79,11.88,16.98,19.05,29.69,17.46l401.14-50.26-200.55-487.05Z"/>
            </g>
            <g>
              <g>
                <polygon class="cls-30" points="2367.59 1883.55 1124.7 2067.68 756.43 1100.98 1999.33 989.19 2367.59 1883.55"/>
                <path class="cls-7" d="M1124.7,2067.68l236.62-35.06-143.67-437.13c-3.84-11.69-15.49-18.97-27.69-17.31l-239.27,32.75,174,456.75Z"/>
                <path class="cls-7" d="M1831.75,1485.79l353.81-44.33-186.23-452.27-376.6,33.87,179.33,445.27c4.79,11.88,16.98,19.05,29.69,17.46Z"/>
              </g>
              <path class="cls-4" d="M1124.69,2074.62c-2.84,0-5.45-1.75-6.49-4.47l-368.27-966.7c-.77-2.03-.55-4.31.6-6.15,1.15-1.84,3.1-3.04,5.27-3.24l1242.9-111.8c3.03-.27,5.89,1.46,7.05,4.27l368.27,894.36c.81,1.98.67,4.22-.38,6.07-1.06,1.86-2.91,3.13-5.02,3.44l-1242.9,184.13c-.34.05-.68.08-1.02.08ZM766.18,1107.08l363.01,952.91,1228.59-182.01-362.94-881.42-1228.67,110.52Z"/>
            </g>
          </g>
          <g>
            <path class="cls-24" d="M1497.2,1557.25l-454.01,57.68c-2.25.29-4.85-1.48-5.79-3.95l-15.76-41.27c-.94-2.47.12-4.7,2.37-4.99l454.01-57.68c2.25-.29,4.85,1.48,5.79,3.95l15.76,41.27c.94,2.47-.12,4.7-2.37,4.99Z"/>
            <path class="cls-22" d="M2060.53,1244.38l-454.01,57.68c-2.25.29-4.85-1.48-5.79-3.95l-15.76-41.27c-.94-2.47.12-4.7,2.37-4.99l454.01-57.68c2.25-.29,4.85,1.48,5.79,3.95l15.76,41.27c.94,2.47-.12,4.7-2.37,4.99Z"/>
            <path class="cls-24" d="M2090.1,1321.78l-454.01,57.68c-2.25.29-4.85-1.48-5.79-3.95l-15.76-41.27c-.94-2.47.12-4.7,2.37-4.99l454.01-57.68c2.25-.29,4.85,1.48,5.79,3.95l15.76,41.27c.94,2.47-.12,4.7-2.37,4.99Z"/>
            <path class="cls-9" d="M2176.11,1549.11l-451.31,62.57c-2.25.29-4.85-1.48-5.79-3.95l-15.76-41.27c-.94-2.47.12-4.7,2.37-4.99l451.31-62.57c2.25-.29,4.85,1.48,5.79,3.95l15.76,41.27c.94,2.47-.12,4.7-2.37,4.99Z"/>
            <path class="cls-22" d="M2206.13,1624.84l-451.76,64.25c-2.25.29-4.85-1.48-5.79-3.95l-15.76-41.27c-.94-2.47.12-4.7,2.37-4.99l451.76-64.25c2.25-.29,4.85,1.48,5.79,3.95l15.76,41.27c.94,2.47-.12,4.7-2.37,4.99Z"/>
            <path class="cls-16" d="M1972.55,1738l-316.57,44.75c-2.25.29-4.85-1.48-5.79-3.95l-15.76-41.27c-.94-2.47.12-4.7,2.37-4.99l316.57-44.75c2.25-.29,4.85,1.48,5.79,3.95l15.76,41.27c.94,2.47-.12,4.7-2.37,4.99Z"/>
            <path class="cls-22" d="M2266.72,1774.45l-581.96,83.62c-2.25.29-4.85-1.48-5.79-3.95l-15.76-41.27c-.94-2.47.12-4.7,2.37-4.99l581.96-83.62c2.25-.29,4.85,1.48,5.79,3.95l15.76,41.27c.94,2.47-.12,4.7-2.37,4.99Z"/>
            <path class="cls-16" d="M1990.49,1413.82l-452.78,59.31c-2.25.29-4.85-1.48-5.79-3.95l-15.76-41.27c-.94-2.47.12-4.7,2.37-4.99l452.78-59.31c2.25-.29,4.85,1.48,5.79,3.95l15.76,41.27c.94,2.47-.12,4.7-2.37,4.99Z"/>
            <path class="cls-22" d="M2086.53,1478.93l-453.21,61.03c-2.25.29-4.85-1.48-5.79-3.95l-15.76-41.27c-.94-2.47.12-4.7,2.37-4.99l453.21-61.03c2.25-.29,4.85,1.48,5.79,3.95l15.76,41.27c.94,2.47-.12,4.7-2.37,4.99Z"/>
            <path class="cls-24" d="M1132.37,1362.31l-46.15,4.97c-2.25.29-4.85-1.48-5.79-3.95l-15.76-41.27c-.94-2.47.12-4.7,2.37-4.99l46.15-4.97c2.25-.29,4.85,1.48,5.79,3.95l15.76,41.27c.94,2.47-.12,4.7-2.37,4.99Z"/>
            <path class="cls-24" d="M1161.94,1439.71l-45.31,5.76c-2.25.29-4.85-1.48-5.79-3.95l-15.76-41.27c-.94-2.47.12-4.7,2.37-4.99l45.31-5.76c2.25-.29,4.85,1.48,5.79,3.95l15.76,41.27c.94,2.47-.12,4.7-2.37,4.99Z"/>
            <path class="cls-24" d="M1191.51,1517.12l-45.31,5.76c-2.25.29-4.85-1.48-5.79-3.95l-15.76-41.27c-.94-2.47.12-4.7,2.37-4.99l45.31-5.76c2.25-.29,4.85,1.48,5.79,3.95l15.76,41.27c.94,2.47-.12,4.7-2.37,4.99Z"/>
            <path class="cls-22" d="M1410.38,1330.55l-241.2,27.08c-2.25.29-4.85-1.48-5.79-3.95l-15.76-41.27c-.94-2.47.12-4.7,2.37-4.99l241.2-27.08c2.25-.29,4.85,1.48,5.79,3.95l15.76,41.27c.94,2.47-.12,4.7-2.37,4.99Z"/>
            <path class="cls-9" d="M1438.86,1404.53l-240.11,30.51c-2.25.29-4.85-1.48-5.79-3.95l-15.76-41.27c-.94-2.47.12-4.7,2.37-4.99l240.11-30.51c2.25-.29,4.85,1.48,5.79,3.95l15.76,41.27c.94,2.47-.12,4.7-2.37,4.99Z"/>
            <path class="cls-22" d="M1468.43,1481.93l-240.11,30.51c-2.25.29-4.85-1.48-5.79-3.95l-15.76-41.27c-.94-2.47.12-4.7,2.37-4.99l240.11-30.51c2.25-.29,4.85,1.48,5.79,3.95l15.76,41.27c.94,2.47-.12,4.7-2.37,4.99Z"/>
            <path class="cls-16" d="M1615.48,1866.87l-454.01,67.34c-2.25.29-4.85-1.48-5.79-3.95l-15.76-41.27c-.94-2.47.12-4.7,2.37-4.99l454.01-67.34c2.25-.29,4.85,1.48,5.79,3.95l15.76,41.27c.94,2.47-.12,4.7-2.37,4.99Z"/>
            <path class="cls-24" d="M1250.65,1671.93l-45.31,5.76c-2.25.29-4.85-1.48-5.79-3.95l-15.76-41.27c-.94-2.47.12-4.7,2.37-4.99l45.31-5.76c2.25-.29,4.85,1.48,5.79,3.95l15.76,41.27c.94,2.47-.12,4.7-2.37,4.99Z"/>
            <path class="cls-24" d="M1280.22,1749.33l-45.31,5.76c-2.25.29-4.85-1.48-5.79-3.95l-15.76-41.27c-.94-2.47.12-4.7,2.37-4.99l45.31-5.76c2.25-.29,4.85,1.48,5.79,3.95l15.76,41.27c.94,2.47-.12,4.7-2.37,4.99Z"/>
            <path class="cls-24" d="M1309.79,1826.74l-45.31,5.76c-2.25.29-4.85-1.48-5.79-3.95l-15.76-41.27c-.94-2.47.12-4.7,2.37-4.99l45.31-5.76c2.25-.29,4.85,1.48,5.79,3.95l15.76,41.27c.94,2.47-.12,4.7-2.37,4.99Z"/>
            <path class="cls-22" d="M1527.57,1636.74l-240.11,30.51c-2.25.29-4.85-1.48-5.79-3.95l-15.76-41.27c-.94-2.47.12-4.7,2.37-4.99l240.11-30.51c2.25-.29,4.85,1.48,5.79,3.95l15.76,41.27c.94,2.47-.12,4.7-2.37,4.99Z"/>
            <path class="cls-16" d="M1557.14,1714.15l-240.11,30.51c-2.25.29-4.85-1.48-5.79-3.95l-15.76-41.27c-.94-2.47.12-4.7,2.37-4.99l240.11-30.51c2.25-.29,4.85,1.48,5.79,3.95l15.76,41.27c.94,2.47-.12,4.7-2.37,4.99Z"/>
            <path class="cls-22" d="M1586.71,1791.55l-240.11,30.51c-2.25.29-4.85-1.48-5.79-3.95l-15.76-41.27c-.94-2.47.12-4.7,2.37-4.99l240.11-30.51c2.25-.29,4.85,1.48,5.79,3.95l15.76,41.27c.94,2.47-.12,4.7-2.37,4.99Z"/>
            <path class="cls-24" d="M1650.33,1866.6c-1.67,0-3.25-1.02-3.88-2.67l-254.94-667.36c-.82-2.14.26-4.55,2.4-5.37,2.15-.82,4.55.26,5.37,2.4l254.94,667.36c.82,2.14-.26,4.55-2.4,5.37-.49.19-.99.27-1.48.27Z"/>
            <g>
              <path class="cls-16" d="M1366.32,1192.53c-.58-1.66-2.23-2.69-3.97-2.5l-458.67,50.43c-2.25.29-3.32,2.52-2.37,4.99l15.76,41.27c.94,2.47,3.54,4.24,5.79,3.95l455.38-50.07c2.41-.26,3.95-2.7,3.15-4.99l-15.07-43.08Z"/>
              <path class="cls-22" d="M1910.21,1177.39l-15.76-41.27c-.94-2.47-3.54-4.24-5.79-3.95l-460.77,50.66c-2.44.27-3.98,2.77-3.12,5.07l16.15,42.96c.61,1.61,2.23,2.61,3.94,2.42l462.98-50.9c2.25-.29,3.32-2.52,2.37-4.99Z"/>
            </g>
            <path class="cls-16" d="M1304.56,1859.93l-162.27,24.07c-2.25.29-3.32,2.52-2.37,4.99l15.76,41.27c.94,2.47,3.53,4.24,5.79,3.95l159.72-23.69-16.63-50.59Z"/>
            <path class="cls-3" d="M1258.69,1828.54c.94,2.47,3.54,4.24,5.79,3.95l29.82-3.79-16.61-50.54-32.39,4.12c-2.25.29-3.32,2.52-2.37,4.99l15.76,41.27Z"/>
            <path class="cls-3" d="M1229.12,1751.14c.94,2.47,3.54,4.24,5.79,3.95l33.79-4.29-16.61-50.54-36.36,4.62c-2.25.29-3.32,2.52-2.37,4.99l15.76,41.27Z"/>
            <path class="cls-3" d="M1199.55,1673.73c.94,2.47,3.54,4.24,5.79,3.95l37.75-4.8-16.61-50.54-40.32,5.12c-2.25.29-3.32,2.52-2.37,4.99l15.76,41.27Z"/>
            <path class="cls-3" d="M1189.96,1578.19l-156.88,21.47,4.32,11.32c.94,2.47,3.53,4.24,5.79,3.95l173.42-22.03c-4.61-10.15-15.39-16.25-26.65-14.71Z"/>
            <path class="cls-6" d="M2073.14,1432.67c-.94-2.47-3.54-4.24-5.79-3.95l-266.78,35.92,1.49,3.69c4.79,11.88,16.98,19.05,29.69,17.46l249.73-31.29-8.34-21.83Z"/>
            <path class="cls-16" d="M1366.32,1192.53c-.58-1.66-2.23-2.69-3.97-2.5l-458.67,50.43c-2.25.29-3.32,2.52-2.37,4.99l15.76,41.27c.94,2.47,3.54,4.24,5.79,3.95l455.38-50.07c2.41-.26,3.95-2.7,3.15-4.99l-15.07-43.08Z"/>
            <path class="cls-16" d="M1790.65,1440l199.84-26.18c2.25-.29,3.32-2.52,2.37-4.99l-15.76-41.27c-.94-2.47-3.54-4.24-5.79-3.95l-200.83,26.31,20.17,50.08Z"/>
            <path class="cls-3" d="M1759.93,1363.73l330.17-41.95c2.25-.29,3.32-2.52,2.37-4.99l-15.76-41.27c-.94-2.47-3.53-4.24-5.79-3.95l-331.16,42.08,20.17,50.08Z"/>
            <path class="cls-6" d="M1728.84,1286.52l331.69-42.14c2.25-.29,3.32-2.52,2.37-4.99l-15.76-41.27c-.94-2.47-3.54-4.24-5.79-3.95l-332.68,42.27,20.17,50.08Z"/>
            <path class="cls-6" d="M1696.26,1205.64l211.57-23.26c2.25-.29,3.32-2.52,2.37-4.99l-15.76-41.27c-.94-2.47-3.54-4.24-5.79-3.95l-212.57,23.37,20.18,50.1Z"/>
          </g>
        </g>
        <g>
          <g>
            <path class="cls-28" d="M2495.89,395.32c-3.01,0-6.08-.08-9.12-.23-4.08-.2-7.22-3.67-7.01-7.74.2-4.08,3.66-7.22,7.74-7.02,11.35.56,22.64-.02,33.47-1.72,4.02-.63,7.81,2.12,8.44,6.15.63,4.03-2.12,7.81-6.15,8.44-8.91,1.4-18.12,2.11-27.36,2.11ZM2452.45,390.11c-.57,0-1.14-.07-1.72-.2-11.68-2.79-23.27-6.67-34.46-11.54-3.74-1.63-5.46-5.98-3.83-9.72,1.63-3.74,5.98-5.46,9.72-3.83,10.39,4.52,21.16,8.13,32,10.72,3.97.95,6.42,4.93,5.47,8.9-.81,3.39-3.84,5.67-7.18,5.67ZM2555.88,384.1c-2.93,0-5.71-1.76-6.86-4.65-1.51-3.79.34-8.09,4.13-9.6,10.41-4.15,20.24-9.49,29.21-15.87,3.33-2.36,7.94-1.58,10.3,1.74,2.36,3.33,1.59,7.94-1.74,10.3-9.93,7.06-20.79,12.96-32.3,17.55-.9.36-1.82.53-2.73.53ZM2388.36,362.34c-1.38,0-2.78-.39-4.03-1.2-10.08-6.57-19.72-14.05-28.65-22.21-3.01-2.75-3.22-7.43-.47-10.44,2.75-3.01,7.43-3.22,10.44-.47,8.35,7.63,17.35,14.61,26.76,20.74,3.42,2.23,4.38,6.81,2.15,10.22-1.42,2.17-3.78,3.35-6.19,3.35ZM2612.43,343.76c-1.69,0-3.39-.58-4.78-1.76-3.11-2.64-3.48-7.31-.84-10.41,7.16-8.42,13.29-17.75,18.19-27.73,1.8-3.66,6.22-5.17,9.89-3.37,3.66,1.8,5.17,6.23,3.37,9.89-5.45,11.08-12.24,21.44-20.2,30.79-1.46,1.72-3.54,2.6-5.63,2.6ZM2336.78,315.2c-2.18,0-4.35-.96-5.8-2.81-7.54-9.56-14.29-19.74-20.04-30.25-1.96-3.58-.65-8.07,2.93-10.03,3.58-1.96,8.07-.64,10.03,2.93,5.36,9.79,11.64,19.28,18.68,28.19,2.53,3.2,1.98,7.85-1.22,10.38-1.35,1.07-2.97,1.59-4.57,1.59ZM2643.18,281.47c-.53,0-1.07-.06-1.61-.18-3.98-.88-6.5-4.83-5.61-8.81,2.37-10.67,3.57-21.84,3.57-33.21,0-1.96.76-3.74,2-5.06-1.32-1.24-2.19-2.98-2.31-4.93-.67-11.04-2.47-22.19-5.35-33.15-1.04-3.95,1.32-7.99,5.27-9.02,3.95-1.04,7.99,1.32,9.02,5.27,3.13,11.89,5.08,24.01,5.81,36.01.13,2.11-.65,4.08-1.99,5.51,1.43,1.35,2.32,3.26,2.32,5.38,0,12.44-1.32,24.69-3.92,36.41-.76,3.44-3.82,5.79-7.21,5.79ZM2303.36,253.88c-3.09,0-5.97-1.95-7.01-5.05-3.9-11.66-6.67-23.6-8.25-35.5-.53-4.05,2.31-7.76,6.36-8.29,4.05-.53,7.76,2.31,8.29,6.36,1.45,10.97,4.01,21.98,7.61,32.75,1.3,3.87-.79,8.06-4.66,9.35-.78.26-1.57.38-2.34.38ZM2294.39,184.75c-.18,0-.37,0-.55-.02-4.07-.3-7.12-3.84-6.82-7.91.92-12.4,3.19-24.53,6.76-36.04,1.21-3.9,5.34-6.08,9.24-4.87,3.9,1.21,6.08,5.34,4.87,9.24-3.24,10.45-5.3,21.48-6.13,32.77-.29,3.88-3.53,6.84-7.36,6.84ZM2629.02,168.72c-2.77,0-5.43-1.57-6.69-4.25-4.74-10.08-10.45-19.91-16.96-29.23-2.34-3.34-1.52-7.95,1.82-10.29,3.35-2.34,7.95-1.52,10.29,1.82,6.99,10,13.12,20.57,18.22,31.41,1.74,3.69.15,8.09-3.54,9.83-1.02.48-2.09.7-3.14.7ZM2315.12,118.39c-1.3,0-2.62-.34-3.81-1.07-3.49-2.11-4.61-6.65-2.5-10.14,6.37-10.54,14.04-20.27,22.81-28.91,2.91-2.86,7.58-2.83,10.45.08,2.86,2.91,2.83,7.58-.08,10.45-7.89,7.78-14.8,16.53-20.54,26.03-1.39,2.3-3.83,3.57-6.33,3.57ZM2589.05,111.42c-1.92,0-3.84-.74-5.29-2.23-7.89-8.08-16.48-15.56-25.54-22.24-3.28-2.42-3.98-7.05-1.56-10.33,2.42-3.28,7.05-3.98,10.33-1.56,9.7,7.15,18.9,15.16,27.34,23.8,2.85,2.92,2.8,7.6-.12,10.45-1.44,1.4-3.3,2.1-5.16,2.1ZM2532.78,69.98c-1.13,0-2.27-.26-3.34-.8-10.11-5.14-20.65-9.4-31.31-12.66-3.9-1.2-6.1-5.33-4.9-9.23,1.19-3.9,5.33-6.09,9.23-4.9,11.47,3.52,22.8,8.1,33.67,13.62,3.64,1.85,5.09,6.29,3.24,9.93-1.3,2.57-3.9,4.04-6.59,4.04ZM2364.55,69.62c-2.53,0-4.99-1.3-6.37-3.64-2.07-3.51-.9-8.04,2.61-10.12,10.47-6.17,21.77-11.15,33.61-14.8,3.9-1.2,8.03.98,9.24,4.89,1.2,3.9-.99,8.03-4.88,9.24-10.74,3.31-20.98,7.82-30.46,13.41-1.18.7-2.47,1.03-3.75,1.03ZM2466,49.62c-.29,0-.57-.02-.86-.05-11.31-1.32-22.65-1.53-33.57-.64-4.07.32-7.63-2.7-7.96-6.76-.33-4.07,2.7-7.63,6.76-7.96,11.88-.97,24.21-.74,36.48.69,4.05.47,6.96,4.14,6.48,8.19-.44,3.76-3.63,6.53-7.33,6.53Z"/>
            <g>
              <path class="cls-28" d="M2430.72,253.26c-.67-1.05-1.69-1.87-3.05-2.46l-45.3-20.07,39.37-29.72c1.08-.89,1.85-1.87,2.31-2.95.46-1.08.63-2.15.5-3.22-.27-2.23-1.47-4.27-3.58-6.12-2.11-1.85-4.24-2.64-6.36-2.38-1.06.13-2.18.51-3.34,1.14-1.16.63-2.39,1.45-3.66,2.47l-48.21,36.17c-1.18.9-2.02,2.06-2.49,3.46-.48,1.41-.62,2.86-.44,4.35.17,1.38.65,2.7,1.45,3.95.8,1.25,1.89,2.23,3.27,2.92l55.58,24.14c1.59.67,3.09,1.27,4.51,1.8,1.41.53,2.7.72,3.88.58,1.81-.22,3.47-1.42,4.98-3.6,1.52-2.18,2.12-4.55,1.8-7.1-.14-1.17-.55-2.28-1.22-3.33Z"/>
              <path class="cls-28" d="M2509.12,129.52c-2.04-1.21-3.96-1.7-5.77-1.48-1.38.17-2.66.76-3.83,1.76-1.17,1.01-2.04,2.3-2.6,3.88l-48.57,140.5c-.48,1.35-.65,2.67-.49,3.95.29,2.34,1.48,4.14,3.57,5.39,2.1,1.25,4.05,1.77,5.86,1.55,1.49-.18,2.79-.77,3.91-1.77,1.12-1,1.96-2.29,2.52-3.87l48.42-140.48c.48-1.35.65-2.67.49-3.95-.3-2.45-1.47-4.27-3.5-5.48Z"/>
              <path class="cls-28" d="M2606.78,204.62c-.18-1.49-.67-2.86-1.47-4.11-.8-1.25-1.88-2.17-3.25-2.76l-55.58-24.14c-1.59-.67-3.1-1.27-4.51-1.8-1.42-.53-2.71-.72-3.88-.58-1.7.21-3.34,1.41-4.9,3.59-1.57,2.19-2.2,4.56-1.88,7.11.14,1.17.55,2.28,1.22,3.33.67,1.05,1.69,1.87,3.05,2.46l45.3,20.07-39.37,29.72c-1.08.89-1.85,1.85-2.32,2.87-.47,1.03-.63,2.13-.49,3.3.27,2.23,1.47,4.27,3.58,6.12,2.11,1.85,4.23,2.64,6.36,2.38,1.17-.14,2.31-.55,3.41-1.23,1.1-.67,2.3-1.47,3.59-2.38l48.21-36.17c1.19-.9,2.02-2.05,2.49-3.46.48-1.41.62-2.85.44-4.35Z"/>
            </g>
          </g>
          <g>
            <path class="cls-28" d="M545.47,716.69c-3.04,0-6.11-.08-9.14-.23-4.08-.2-7.22-3.67-7.01-7.74.2-4.08,3.67-7.22,7.74-7.01,2.79.14,5.66.2,8.41.21,8.47,0,16.9-.65,25.06-1.93,4.03-.63,7.81,2.12,8.44,6.15.63,4.03-2.12,7.81-6.15,8.44-8.91,1.4-18.12,2.11-27.35,2.11ZM502.02,711.49c-.57,0-1.15-.07-1.72-.2-11.68-2.79-23.28-6.67-34.46-11.54-3.74-1.63-5.46-5.98-3.83-9.72,1.63-3.74,5.98-5.45,9.72-3.83,10.39,4.52,21.16,8.13,32,10.72,3.97.95,6.42,4.93,5.47,8.9-.81,3.39-3.84,5.67-7.18,5.67ZM605.46,705.47c-2.94,0-5.71-1.76-6.86-4.65-1.51-3.79.34-8.09,4.13-9.6,10.41-4.15,20.24-9.49,29.21-15.87,3.33-2.36,7.94-1.58,10.3,1.74,2.36,3.33,1.59,7.94-1.74,10.3-9.93,7.06-20.79,12.96-32.3,17.55-.9.36-1.82.53-2.73.53ZM437.93,683.72c-1.38,0-2.78-.39-4.03-1.2-10.08-6.57-19.72-14.05-28.65-22.21-3.01-2.75-3.22-7.43-.47-10.44,2.75-3.01,7.43-3.22,10.44-.47,8.34,7.63,17.35,14.61,26.76,20.74,3.42,2.23,4.38,6.81,2.15,10.22-1.42,2.17-3.78,3.35-6.2,3.35ZM662,665.14c-1.69,0-3.39-.58-4.79-1.76-3.11-2.64-3.48-7.31-.84-10.41,7.16-8.42,13.29-17.75,18.19-27.73,1.8-3.66,6.23-5.17,9.89-3.37,3.66,1.8,5.17,6.23,3.37,9.89-5.45,11.08-12.24,21.44-20.2,30.79-1.46,1.72-3.54,2.6-5.63,2.6ZM386.35,636.57c-2.18,0-4.35-.96-5.8-2.81-7.54-9.56-14.29-19.74-20.04-30.25-1.96-3.58-.65-8.07,2.93-10.03,3.58-1.96,8.07-.65,10.03,2.93,5.36,9.8,11.65,19.28,18.68,28.19,2.53,3.2,1.98,7.85-1.22,10.38-1.36,1.07-2.97,1.59-4.57,1.59ZM692.75,602.84c-.53,0-1.07-.06-1.61-.18-3.98-.88-6.5-4.83-5.61-8.81,2.37-10.67,3.57-21.84,3.57-33.21,0-1.96.76-3.74,2.01-5.06-1.32-1.24-2.19-2.98-2.31-4.93-.67-11.04-2.47-22.19-5.36-33.15-1.04-3.95,1.32-7.99,5.27-9.02,3.95-1.03,7.99,1.32,9.02,5.27,3.13,11.89,5.08,24,5.81,36.01.13,2.12-.65,4.08-1.99,5.51,1.43,1.35,2.32,3.26,2.32,5.38,0,12.44-1.32,24.69-3.92,36.41-.76,3.45-3.82,5.79-7.21,5.79ZM352.93,575.25c-3.09,0-5.97-1.95-7.01-5.05-3.9-11.65-6.67-23.6-8.25-35.5-.53-4.05,2.31-7.76,6.36-8.29,4.04-.54,7.76,2.31,8.29,6.36,1.45,10.97,4.01,21.98,7.61,32.75,1.29,3.87-.79,8.06-4.66,9.35-.78.26-1.57.38-2.35.38ZM343.96,506.13c-.18,0-.37,0-.55-.02-4.07-.3-7.12-3.84-6.82-7.91.92-12.4,3.19-24.52,6.75-36.04,1.21-3.9,5.34-6.08,9.24-4.87,3.9,1.21,6.08,5.34,4.87,9.24-3.24,10.46-5.3,21.48-6.13,32.76-.29,3.88-3.53,6.84-7.36,6.84ZM678.59,490.1c-2.77,0-5.43-1.57-6.69-4.24-4.74-10.08-10.45-19.91-16.96-29.23-2.34-3.34-1.52-7.95,1.82-10.29,3.34-2.34,7.95-1.52,10.29,1.82,6.99,10,13.12,20.57,18.22,31.41,1.74,3.69.15,8.09-3.54,9.83-1.02.48-2.09.7-3.14.7ZM364.69,439.77c-1.3,0-2.62-.34-3.81-1.07-3.49-2.11-4.61-6.65-2.5-10.14,6.37-10.54,14.05-20.27,22.81-28.91,2.91-2.86,7.58-2.83,10.45.08,2.86,2.91,2.83,7.58-.08,10.45-7.89,7.78-14.8,16.53-20.54,26.02-1.39,2.3-3.83,3.57-6.33,3.57ZM638.62,432.79c-1.92,0-3.84-.74-5.29-2.23-7.89-8.08-16.48-15.56-25.54-22.24-3.28-2.42-3.98-7.05-1.56-10.33,2.42-3.28,7.05-3.98,10.33-1.56,9.7,7.15,18.9,15.16,27.34,23.81,2.85,2.92,2.8,7.6-.12,10.45-1.44,1.4-3.3,2.1-5.16,2.1ZM582.35,391.36c-1.13,0-2.27-.26-3.34-.8-10.11-5.14-20.65-9.4-31.31-12.66-3.9-1.19-6.1-5.33-4.9-9.23,1.2-3.9,5.33-6.1,9.23-4.9,11.47,3.51,22.8,8.1,33.67,13.62,3.64,1.85,5.09,6.3,3.24,9.93-1.3,2.57-3.9,4.04-6.59,4.04ZM414.12,391c-2.53,0-4.99-1.3-6.37-3.64-2.07-3.51-.9-8.04,2.61-10.12,10.47-6.17,21.78-11.15,33.61-14.8,3.9-1.2,8.03.99,9.24,4.89,1.2,3.9-.99,8.03-4.89,9.24-10.74,3.31-20.98,7.82-30.46,13.41-1.18.7-2.47,1.03-3.75,1.03ZM515.57,371c-.29,0-.57-.02-.86-.05-11.31-1.32-22.66-1.53-33.57-.64-4.07.31-7.63-2.7-7.96-6.76-.33-4.07,2.7-7.63,6.76-7.96,11.88-.97,24.21-.74,36.48.7,4.05.47,6.96,4.14,6.48,8.19-.44,3.76-3.63,6.53-7.33,6.53Z"/>
            <g>
              <path class="cls-28" d="M472.53,570.27c-.69-1.14-1.76-2.03-3.21-2.69l-47.91-22.42,42.68-30.86c1.17-.92,2.01-1.96,2.53-3.1.51-1.14.72-2.29.6-3.42-.24-2.39-1.47-4.59-3.69-6.61-2.22-2.02-4.46-2.91-6.74-2.68-1.14.12-2.34.5-3.59,1.14-1.26.64-2.58,1.5-3.97,2.56l-52.25,37.55c-1.28.94-2.2,2.15-2.74,3.64-.54,1.49-.73,3.04-.57,4.63.15,1.48.64,2.9,1.47,4.25.83,1.35,1.97,2.42,3.43,3.19l58.79,26.98c1.69.75,3.28,1.42,4.78,2.02,1.5.6,2.87.83,4.12.7,1.93-.2,3.73-1.44,5.4-3.74,1.66-2.29,2.36-4.81,2.08-7.54-.13-1.25-.54-2.45-1.23-3.58Z"/>
              <path class="cls-28" d="M558.92,439.91c-2.15-1.33-4.19-1.9-6.12-1.71-1.48.15-2.86.75-4.13,1.8-1.27,1.05-2.23,2.41-2.86,4.09l-54.93,148.91c-.54,1.43-.75,2.83-.61,4.2.25,2.5,1.49,4.45,3.7,5.83,2.21,1.39,4.28,1.98,6.22,1.78,1.59-.16,3-.77,4.21-1.81,1.21-1.05,2.14-2.4,2.78-4.08l54.76-148.89c.54-1.43.75-2.84.61-4.2-.27-2.62-1.47-4.59-3.62-5.93Z"/>
              <path class="cls-28" d="M661.52,522.21c-.16-1.59-.66-3.07-1.48-4.42-.83-1.35-1.96-2.36-3.41-3.02l-58.79-26.98c-1.69-.75-3.28-1.42-4.77-2.02-1.5-.59-2.87-.83-4.12-.7-1.82.18-3.59,1.43-5.31,3.73-1.72,2.3-2.44,4.82-2.17,7.55.13,1.25.53,2.45,1.23,3.58.69,1.14,1.76,2.04,3.21,2.69l47.91,22.42-42.68,30.86c-1.17.93-2.02,1.93-2.54,3.02-.52,1.09-.72,2.26-.59,3.51.24,2.39,1.47,4.59,3.69,6.61,2.22,2.02,4.46,2.91,6.74,2.68,1.25-.13,2.47-.54,3.67-1.23,1.19-.69,2.49-1.52,3.89-2.46l52.25-37.55c1.28-.93,2.2-2.15,2.74-3.64.54-1.49.73-3.03.57-4.63Z"/>
            </g>
          </g>
          <g>
            <path class="cls-24" d="M3086.09,975.88c-4.06,0-7.37-3.28-7.39-7.35-.02-4.08,3.27-7.4,7.35-7.42,11.36-.06,22.58-1.23,33.35-3.49,3.99-.84,7.91,1.72,8.75,5.72.84,3.99-1.72,7.91-5.72,8.75-11.74,2.46-23.96,3.74-36.31,3.8-.01,0-.02,0-.04,0ZM3051.17,972.8c-.43,0-.87-.04-1.31-.12-11.82-2.12-23.61-5.31-35.05-9.48-3.83-1.4-5.81-5.64-4.41-9.47,1.4-3.83,5.63-5.81,9.47-4.41,10.65,3.88,21.62,6.85,32.61,8.82,4.02.72,6.69,4.56,5.96,8.58-.64,3.57-3.75,6.08-7.26,6.08ZM3154.22,961.4c-2.81,0-5.5-1.61-6.74-4.34-1.68-3.72-.03-8.09,3.68-9.78,10.21-4.62,19.82-10.38,28.56-17.12,3.23-2.49,7.87-1.89,10.36,1.34,2.49,3.23,1.89,7.87-1.34,10.36-9.64,7.43-20.24,13.78-31.49,18.87-.99.45-2.02.66-3.04.66ZM2985.49,948.97c-1.23,0-2.47-.31-3.62-.95-10.45-5.89-20.56-12.7-30.05-20.22-3.2-2.54-3.73-7.18-1.19-10.38,2.54-3.2,7.18-3.73,10.38-1.19,8.88,7.05,18.34,13.41,28.12,18.92,3.56,2,4.81,6.51,2.81,10.06-1.36,2.41-3.86,3.76-6.44,3.76ZM3209.22,918.92c-1.62,0-3.25-.53-4.62-1.62-3.18-2.55-3.69-7.2-1.14-10.39,6.92-8.64,12.83-18.13,17.55-28.23,1.73-3.7,6.13-5.29,9.82-3.56,3.7,1.73,5.29,6.13,3.56,9.82-5.22,11.16-11.75,21.67-19.41,31.22-1.46,1.82-3.6,2.77-5.77,2.77ZM2930.73,905.54c-1.99,0-3.98-.8-5.43-2.38-8.21-8.91-15.74-18.49-22.39-28.48-2.26-3.4-1.34-7.98,2.06-10.24,3.4-2.26,7.98-1.34,10.24,2.06,6.21,9.34,13.26,18.31,20.95,26.65,2.76,3,2.57,7.67-.43,10.44-1.42,1.31-3.22,1.96-5.01,1.96ZM3238.8,855.99c-.51,0-1.03-.05-1.54-.16-3.99-.85-6.54-4.77-5.69-8.76,2.28-10.72,3.43-21.92,3.43-33.29,0-6.37-.36-12.84-1.08-19.24-.45-4.05,2.46-7.71,6.52-8.17,4.04-.46,7.71,2.46,8.17,6.52.78,6.94,1.17,13.96,1.17,20.88,0,12.41-1.26,24.64-3.75,36.36-.74,3.47-3.81,5.85-7.22,5.85ZM2892.1,847.3c-2.82,0-5.52-1.62-6.74-4.36-5.01-11.17-9.03-22.72-11.94-34.33-.99-3.96,1.41-7.97,5.37-8.96,3.96-.99,7.97,1.41,8.96,5.37,2.7,10.76,6.43,21.49,11.09,31.87,1.67,3.72,0,8.09-3.71,9.76-.98.44-2.01.65-3.02.65ZM2875.27,779.57c-3.89,0-7.15-3.04-7.37-6.97-.19-3.47-.29-6.99-.29-10.46,0-8.79.64-17.55,1.89-26.02.6-4.04,4.37-6.82,8.39-6.23,4.04.6,6.82,4.36,6.23,8.39-1.15,7.76-1.73,15.78-1.73,23.86,0,3.19.09,6.43.27,9.63.23,4.07-2.89,7.56-6.96,7.79-.14,0-.28.01-.42.01ZM3234.1,766.81c-3.16,0-6.09-2.05-7.06-5.23-3.25-10.62-7.52-21.15-12.68-31.3-1.85-3.64-.4-8.09,3.24-9.93,3.64-1.85,8.08-.4,9.93,3.24,5.54,10.91,10.13,22.24,13.63,33.67,1.2,3.9-1,8.03-4.9,9.23-.72.22-1.45.33-2.17.33ZM2885.72,710.74c-.89,0-1.79-.16-2.67-.5-3.8-1.48-5.69-5.76-4.21-9.56,4.47-11.5,10.27-22.42,17.24-32.46,2.33-3.35,6.93-4.18,10.28-1.85,3.35,2.33,4.18,6.93,1.85,10.28-6.31,9.08-11.56,18.96-15.6,29.38-1.14,2.92-3.93,4.71-6.89,4.71ZM3202.57,704.47c-2.27,0-4.52-1.05-5.96-3.02-6.65-9.07-14.09-17.71-22.13-25.69-2.9-2.87-2.91-7.55-.04-10.45,2.87-2.9,7.55-2.91,10.45-.04,8.58,8.52,16.54,17.75,23.64,27.44,2.41,3.29,1.7,7.91-1.59,10.33-1.32.97-2.85,1.43-4.36,1.43ZM3152.95,655.21c-1.5,0-3.01-.46-4.32-1.4-9.19-6.65-18.93-12.58-28.94-17.62-3.64-1.84-5.11-6.28-3.27-9.92,1.84-3.64,6.28-5.11,9.92-3.27,10.71,5.4,21.12,11.74,30.95,18.84,3.31,2.39,4.05,7.01,1.66,10.32-1.45,2-3.7,3.06-5.99,3.06ZM2925.4,653.67c-2.04,0-4.08-.84-5.54-2.49-2.7-3.06-2.42-7.73.64-10.43,9.14-8.08,19.29-15.13,30.18-20.94,3.6-1.92,8.08-.56,10,3.04,1.92,3.6.56,8.07-3.04,10-9.87,5.27-19.07,11.65-27.34,18.97-1.41,1.24-3.15,1.86-4.89,1.86ZM3090.52,623.83c-.73,0-1.46-.11-2.19-.33-10.06-3.12-20.38-5.44-30.67-6.89-.78-.11-1.55-.21-2.33-.31-4.05-.52-6.91-4.22-6.39-8.27.52-4.05,4.23-6.9,8.27-6.39.83.11,1.67.22,2.5.34,11.08,1.56,22.18,4.05,32.99,7.41,3.9,1.21,6.08,5.35,4.87,9.25-.98,3.17-3.9,5.2-7.05,5.2ZM2986.7,620.81c-3.24,0-6.22-2.16-7.12-5.44-1.08-3.93,1.24-8,5.17-9.08,11.6-3.18,23.73-5.17,36.06-5.92,4.07-.25,7.58,2.85,7.82,6.93.25,4.07-2.85,7.57-6.93,7.82-11.32.69-22.44,2.51-33.05,5.42-.65.18-1.31.27-1.96.27Z"/>
            <g>
              <path class="cls-24" d="M3017.69,818.02c-2.02,0-3.96.65-5.84,1.92-2.22,1.62-4.59,2.86-7.12,3.73-2.53.88-5.09,1.51-7.69,1.9-4.72.71-9.2.68-13.46-.11-4.26-.78-8.09-2.4-11.52-4.83-3.42-2.44-6.3-5.7-8.64-9.77-2.34-4.08-3.95-9.05-4.84-14.93-.76-5.01-.7-9.69.17-14.06.87-4.36,2.52-8.28,4.95-11.75,2.43-3.47,5.57-6.33,9.41-8.59,3.84-2.25,8.37-3.78,13.57-4.56,2.79-.42,5.51-.54,8.15-.34,2.64.19,5.19.65,7.66,1.35,2.17.66,4.22.74,6.17.25,1.94-.49,3.41-1.7,4.4-3.62,1.49-2.49,1.82-5.05.98-7.68-.84-2.63-2.61-4.38-5.3-5.26-3.84-1.29-7.85-2.11-12.04-2.46-4.19-.35-8.4-.21-12.64.43-7.51,1.13-14.25,3.46-20.22,6.97-5.97,3.51-10.94,7.91-14.92,13.19-3.98,5.28-6.77,11.24-8.38,17.88-1.61,6.65-1.85,13.67-.73,21.09,1.3,8.57,3.83,15.89,7.6,21.97,3.77,6.08,8.42,10.91,13.94,14.51,5.52,3.6,11.55,6.04,18.09,7.31,6.54,1.28,13.28,1.39,20.22.34,2.79-.42,5.5-1.05,8.13-1.89,2.63-.84,5.21-1.87,7.73-3.09,2.52-1.22,4.94-2.64,7.26-4.27,2.23-1.52,3.42-3.59,3.56-6.23.14-2.63-.93-5.01-3.22-7.12-1.61-1.53-3.43-2.29-5.44-2.28Z"/>
              <path class="cls-24" d="M3103.35,776.34c-1.77-1.26-3.8-1.71-6.12-1.37l-20.22,3.05-3.25-21.52c-.41-2.69-1.59-4.78-3.53-6.26-1.95-1.48-4.32-2.01-7.11-1.58-2.7.41-4.83,1.62-6.4,3.62-1.57,2.01-2.15,4.36-1.74,7.06l3.25,21.52-19.79,2.99c-2.31.35-4.13,1.36-5.45,3.04-1.32,1.68-1.81,3.67-1.46,5.98.35,2.31,1.41,4.12,3.18,5.43,1.77,1.31,3.82,1.79,6.13,1.44l19.79-2.99,2.86,18.92c.41,2.7,1.63,4.78,3.68,6.24,2.04,1.46,4.41,1.99,7.11,1.59,2.79-.42,4.92-1.63,6.4-3.62,1.47-2,2-4.34,1.6-7.04l-2.86-18.92,20.22-3.05c2.31-.35,4.12-1.38,5.44-3.11,1.31-1.72,1.8-3.74,1.45-6.05-.35-2.31-1.41-4.1-3.17-5.36Z"/>
              <path class="cls-24" d="M3190.01,769.09c-.35-2.31-1.41-4.09-3.17-5.36-1.77-1.26-3.8-1.71-6.12-1.37l-20.22,3.05-3.25-21.52c-.41-2.69-1.58-4.78-3.53-6.26-1.95-1.48-4.32-2.01-7.11-1.59-2.7.41-4.83,1.62-6.4,3.63-1.57,2.01-2.15,4.36-1.74,7.06l3.25,21.52-19.79,2.99c-2.31.35-4.13,1.36-5.45,3.04-1.32,1.68-1.81,3.67-1.46,5.98.35,2.31,1.41,4.12,3.18,5.43,1.77,1.31,3.82,1.79,6.13,1.44l19.79-2.99,2.86,18.92c.41,2.7,1.63,4.78,3.68,6.24,2.04,1.46,4.41,1.99,7.11,1.58,2.79-.42,4.92-1.63,6.4-3.62,1.47-2,2-4.34,1.6-7.04l-2.86-18.92,20.22-3.05c2.31-.35,4.12-1.38,5.44-3.11,1.31-1.72,1.8-3.74,1.45-6.05Z"/>
            </g>
          </g>
          <g>
            <path class="cls-19" d="M2081.94,251.81l-181.85,22.45c-15.51,1.92-30.29-7.12-35.66-21.8l-52.57-143.88c-7.41-20.29,5.99-42.21,27.43-44.85l181.85-22.45c15.51-1.92,30.29,7.12,35.66,21.8l52.57,143.88c7.41,20.29-5.99,42.21-27.43,44.85Z"/>
            <path class="cls-18" d="M2022.44,193.74c-.39-1.89-1.34-3.52-2.84-4.89l-43.67-36.91,24.72-50.14c.55-1.03.91-2.05,1.07-3.07.17-1.02.15-2.04-.06-3.07-.42-2.04-1.56-3.7-3.43-4.99-1.86-1.29-4.11-1.66-6.73-1.11-2.62.54-4.69,2.34-6.18,5.38l-21.84,46.48-40.08-33.88c-2.41-2.08-5-2.84-7.77-2.27-2.48.51-4.46,1.8-5.93,3.85-1.48,2.06-1.94,4.39-1.4,7.02.42,2.04,1.44,3.66,3.05,4.84l43.9,37.02-25.17,50.08c-.95,2.02-1.23,3.98-.84,5.87.48,2.33,1.82,4.03,4.02,5.1,2.2,1.07,4.24,1.4,6.14,1.01,2.91-.6,5.01-2.25,6.27-4.95l22.69-46.05,39.14,33.01c2.58,2.2,5.26,3.01,8.03,2.44,2.33-.48,4.19-1.78,5.58-3.89,1.39-2.11,1.82-4.4,1.31-6.88Z"/>
          </g>
          <g>
            <g>
              <path class="cls-24" d="M395.86,2184.78c-3.04,0-6.11-.08-9.14-.23-4.07-.2-7.22-3.67-7.01-7.74.2-4.08,3.68-7.24,7.74-7.01,2.79.14,5.61.21,8.4.21,8.48,0,16.91-.65,25.07-1.93,4.03-.63,7.81,2.12,8.44,6.15.63,4.03-2.12,7.81-6.15,8.44-8.91,1.4-18.11,2.11-27.34,2.11Z"/>
              <path class="cls-24" d="M352.41,2179.57c-.57,0-1.15-.07-1.72-.2-11.68-2.79-23.27-6.67-34.46-11.54-3.74-1.63-5.46-5.98-3.83-9.72,1.63-3.74,5.98-5.46,9.72-3.83,10.39,4.52,21.16,8.13,32,10.72,3.97.95,6.42,4.93,5.47,8.9-.81,3.39-3.84,5.67-7.18,5.67Z"/>
              <path class="cls-24" d="M455.84,2173.55c-2.94,0-5.71-1.76-6.86-4.65-1.51-3.79.34-8.09,4.13-9.6,10.41-4.15,20.24-9.49,29.21-15.87,3.33-2.36,7.94-1.59,10.3,1.74,2.36,3.33,1.59,7.94-1.74,10.3-9.93,7.06-20.8,12.96-32.3,17.55-.9.36-1.82.53-2.73.53Z"/>
              <path class="cls-24" d="M288.32,2151.8c-1.38,0-2.78-.39-4.03-1.2-10.08-6.57-19.72-14.04-28.65-22.21-3.01-2.75-3.22-7.43-.47-10.44,2.75-3.01,7.43-3.22,10.44-.47,8.35,7.63,17.35,14.61,26.76,20.74,3.42,2.23,4.38,6.81,2.15,10.22-1.42,2.17-3.78,3.35-6.2,3.35Z"/>
              <path class="cls-24" d="M512.39,2133.22c-1.69,0-3.39-.58-4.78-1.76-3.11-2.64-3.48-7.31-.84-10.41,7.16-8.42,13.29-17.75,18.19-27.73,1.8-3.66,6.23-5.17,9.89-3.37,3.66,1.8,5.17,6.23,3.37,9.89-5.45,11.08-12.24,21.44-20.2,30.79-1.46,1.72-3.54,2.6-5.63,2.6Z"/>
              <path class="cls-24" d="M236.74,2104.65c-2.18,0-4.35-.96-5.8-2.81-7.54-9.56-14.29-19.73-20.04-30.25-1.96-3.58-.65-8.07,2.93-10.03,3.58-1.96,8.07-.65,10.03,2.93,5.36,9.79,11.65,19.28,18.68,28.19,2.53,3.2,1.98,7.85-1.22,10.38-1.36,1.07-2.97,1.59-4.57,1.59Z"/>
              <path class="cls-24" d="M543.14,2070.93c-.53,0-1.07-.06-1.61-.18-3.98-.88-6.5-4.83-5.61-8.81,2.37-10.67,3.57-21.84,3.57-33.21,0-1.96.76-3.74,2-5.06-1.32-1.24-2.19-2.97-2.31-4.93-.67-11.04-2.47-22.19-5.35-33.15-1.04-3.95,1.32-7.99,5.27-9.02,3.94-1.04,7.99,1.32,9.02,5.27,3.13,11.89,5.08,24,5.81,36.01.13,2.11-.65,4.08-1.99,5.51,1.43,1.35,2.32,3.26,2.32,5.38,0,12.44-1.32,24.69-3.92,36.41-.76,3.44-3.82,5.79-7.21,5.79Z"/>
              <path class="cls-24" d="M203.31,2043.33c-3.09,0-5.97-1.95-7.01-5.05-3.9-11.65-6.67-23.6-8.25-35.5-.53-4.04,2.31-7.76,6.36-8.29,4.04-.54,7.76,2.31,8.29,6.36,1.45,10.97,4.01,21.98,7.61,32.75,1.29,3.87-.79,8.06-4.66,9.35-.78.26-1.57.38-2.35.38Z"/>
              <path class="cls-24" d="M194.35,1974.21c-.18,0-.37,0-.55-.02-4.07-.3-7.12-3.84-6.82-7.91.92-12.4,3.19-24.52,6.75-36.04,1.21-3.9,5.34-6.08,9.24-4.87,3.9,1.21,6.08,5.34,4.87,9.24-3.24,10.46-5.3,21.48-6.13,32.76-.29,3.88-3.53,6.84-7.36,6.84Z"/>
              <path class="cls-24" d="M528.98,1958.18c-2.77,0-5.43-1.57-6.69-4.25-4.74-10.08-10.45-19.92-16.96-29.23-2.34-3.34-1.52-7.95,1.82-10.29,3.34-2.34,7.95-1.52,10.29,1.82,6.99,10,13.12,20.57,18.22,31.41,1.74,3.69.15,8.09-3.54,9.83-1.02.48-2.09.7-3.14.7Z"/>
              <path class="cls-24" d="M215.08,1907.85c-1.3,0-2.62-.34-3.81-1.07-3.49-2.11-4.61-6.65-2.5-10.14,6.37-10.54,14.04-20.27,22.81-28.91,2.91-2.86,7.58-2.83,10.45.08,2.86,2.91,2.83,7.58-.08,10.45-7.89,7.78-14.8,16.54-20.54,26.03-1.39,2.3-3.83,3.57-6.33,3.57Z"/>
              <path class="cls-24" d="M489.01,1900.88c-1.92,0-3.84-.74-5.29-2.23-7.89-8.07-16.48-15.56-25.54-22.24-3.28-2.42-3.98-7.05-1.56-10.33,2.42-3.28,7.05-3.98,10.33-1.56,9.7,7.15,18.9,15.16,27.34,23.8,2.85,2.92,2.8,7.6-.12,10.45-1.44,1.4-3.3,2.1-5.16,2.1Z"/>
              <path class="cls-24" d="M432.74,1859.44c-1.13,0-2.27-.26-3.34-.8-10.11-5.14-20.65-9.4-31.31-12.66-3.9-1.2-6.1-5.33-4.9-9.23,1.2-3.9,5.33-6.09,9.23-4.9,11.47,3.51,22.8,8.1,33.67,13.62,3.64,1.85,5.09,6.29,3.24,9.93-1.3,2.57-3.9,4.04-6.59,4.04Z"/>
              <path class="cls-24" d="M264.51,1859.08c-2.53,0-4.99-1.3-6.37-3.64-2.07-3.51-.9-8.04,2.61-10.12,10.47-6.17,21.77-11.15,33.61-14.8,3.9-1.2,8.03.99,9.24,4.88,1.2,3.9-.99,8.04-4.89,9.24-10.74,3.31-20.98,7.82-30.46,13.41-1.18.69-2.47,1.03-3.75,1.03Z"/>
              <path class="cls-24" d="M365.96,1839.08c-.29,0-.57-.02-.86-.05-11.32-1.32-22.65-1.54-33.57-.64-4.07.34-7.63-2.7-7.96-6.76-.33-4.07,2.7-7.63,6.76-7.96,11.89-.97,24.2-.74,36.48.69,4.05.47,6.96,4.14,6.48,8.19-.44,3.76-3.63,6.53-7.33,6.53Z"/>
            </g>
            <g>
              <path class="cls-24" d="M351.49,2099.88c-4.04.83-8.4.39-12.49,0-3.61-.34-7.21-.91-10.7-1.91-6.87-1.97-13.3-5.84-17.34-11.85-5.82-8.64-7.04-18.92-8.9-28.9-.62-3.32-1.11-6.7-1.96-9.97-1.88-7.19-6.12-14.09-13.89-15.72-2.1-.44-4.27-.5-6.41-.26-1.59.18-3.12.64-4.74.54-3.69-.25-6.92-2.8-8.03-6.3-1.17-3.66-.24-7.58,2.71-10.11,2.37-2.02,5.59-2.11,8.36-3.33,3.36-1.48,6.38-3.82,8.2-7.04,1.82-3.22,2.5-6.94,2.42-10.6-.09-4.14-1.14-8.13-2.05-12.15-2.21-9.74-5.46-19.93-4.09-30.01,1.12-8.24,5.72-14.99,12.07-20.16,2.88-2.35,6.05-4.32,9.33-6.07,1.9-1.01,3.83-1.94,5.79-2.82,1.93-.86,3.88-1.72,6.01-1.89,3.6-.28,6.77,2,8.23,5.23,1.7,3.75.47,7.67-2.62,10.28-1.6,1.35-3.54,2.29-5.27,3.47-1.57,1.08-3.09,2.23-4.51,3.5-2.72,2.46-4.99,5.49-5.9,9.1-1.28,5.08-.13,10.59,1,15.6.95,4.2,1.9,8.4,2.85,12.6.85,3.76,1.84,7.51,2.09,11.37.23,3.68-.14,7.43-1.49,10.88-1.28,3.27-3.44,6.2-5.88,8.71-2.67,2.74-5.79,4.99-9.12,6.86-.05-.26-.11-.53-.16-.79,9.45,1.01,19.11,4.95,23.8,13.69,2.75,5.13,3.54,10.88,4.59,16.51.84,4.54,1.64,9.09,2.53,13.62.89,4.51,2.31,9.58,5.44,13.09,3.16,3.55,7.77,5.26,12.25,6.44,4.56,1.2,10.81,1.1,13.39,5.8,2.63,4.79-.03,11.46-5.51,12.59Z"/>
              <path class="cls-24" d="M428.74,2083.76c-2.33.48-4.53-.19-6.21-1.86-1.61-1.61-3.08-3.69-3.46-5.99-.42-2.54.6-4.91,2.32-6.75,1.73-1.86,4.12-2.94,6.21-4.34,3.79-2.54,7.5-5.56,9.48-9.78,2.18-4.64,1.69-10.11.81-15.01-.8-4.47-1.96-8.9-2.97-13.33-1.16-5.13-2.68-10.34-2.79-15.63-.11-5.17,1.23-9.98,4.23-14.21,3.2-4.51,7.56-8.05,12.33-10.78.05.26.11.53.16.79-7.27-.96-15.24-3.52-20.4-9-3.86-4.09-5.82-9.56-6.83-15-.74-3.98-1.48-7.96-2.22-11.94-.62-3.33-1.13-6.7-1.94-10-.88-3.59-2.07-7.43-4.42-10.36-2.21-2.76-5.32-4.63-8.6-5.86-1.79-.67-3.63-1.18-5.49-1.6-2.02-.46-4.1-.67-6.1-1.19-2.94-.76-5.53-2.49-6.55-5.45-1.23-3.56-.03-7.82,3.07-10.06,3.22-2.32,7.87-1.78,11.6-1.63,7.38.3,14.87,1.43,21.46,4.92,3.3,1.75,6.32,4.04,8.74,6.89,2.43,2.88,4.26,6.3,5.67,9.79,1.71,4.24,2.58,8.63,3.41,13.09.81,4.39,1.63,8.77,2.44,13.16.87,4.67,1.9,9.38,4.52,13.42,1.98,3.07,4.84,5.6,8.32,6.79,2.04.69,4.19,1.02,6.34,1.01,1.69,0,3.28-.35,4.93-.58,3.78-.53,7.7,1.37,9.44,4.81,1.74,3.44,1.39,7.61-1.16,10.55-1.16,1.33-2.67,2.29-4.36,2.79-1.24.36-2.5.54-3.73.95-3.54,1.2-6.75,3.42-8.84,6.55-3.69,5.54-3.53,12.51-2.11,18.77,1.59,7.03,3.47,14.06,4.74,21.16,1.53,8.53,1.34,17.5-3.37,25.04-4.14,6.64-10.74,11.45-17.55,15.07-1.84.98-3.72,1.89-5.63,2.75-1.8.81-3.56,1.66-5.5,2.06Z"/>
            </g>
          </g>
        </g>
        <g>
          <g>
            <path class="cls-27" d="M2783.29,874.92l-553.25,64.34c-11.14,1.3-21.79-4.96-26.09-15.32l-164.04-395.96c-6.38-15.39,3.74-32.61,20.29-34.54l553.25-64.34c11.14-1.3,21.79,4.96,26.09,15.32l164.04,395.96c6.38,15.39-3.74,32.61-20.29,34.54Z"/>
            <path class="cls-9" d="M2639.54,444.43c-4.29-10.36-14.94-16.62-26.09-15.32l-553.25,64.34c-16.55,1.92-26.67,19.14-20.29,34.54l11.82,28.53,603.35-74.57-15.54-37.51Z"/>
          </g>
          <path class="cls-18" d="M2686.26,1214.14l-253.09-597.95c-5.67-13.39-19.19-21.37-33.64-19.86l-872.13,90.79c-10.35,1.08-19.36,6.81-24.73,15.72-5.37,8.91-6.22,19.56-2.33,29.21l248.5,617.01c5.05,12.53,17.21,20.57,30.46,20.57,1.35,0,2.72-.08,4.09-.26l876.71-109.86c10.3-1.29,19.19-7.19,24.37-16.19,5.19-9,5.84-19.64,1.79-29.2ZM2676.47,1238.73c-3.73,6.47-10.11,10.71-17.52,11.63l-876.71,109.86c-10.62,1.33-20.83-4.67-24.83-14.6l-248.5-617.01c-2.79-6.94-2.18-14.59,1.68-21,3.86-6.41,10.34-10.53,17.78-11.3l872.13-90.79c.84-.09,1.67-.13,2.5-.13,9.42,0,17.94,5.56,21.68,14.41l253.09,597.95c2.91,6.87,2.44,14.52-1.29,20.99Z"/>
          <g>
            <g>
              <path class="cls-19" d="M2766.65,1306.67l-876.71,109.86c-12.71,1.59-24.9-5.58-29.69-17.46l-248.5-617.01c-7.01-17.4,4.6-36.67,23.26-38.62l872.13-90.79c12.34-1.28,24.08,5.64,28.91,17.07l253.09,597.95c7.3,17.24-3.91,36.68-22.48,39.01Z"/>
              <path class="cls-24" d="M2536.04,669.71c-4.84-11.43-16.57-18.36-28.91-17.07l-872.13,90.79c-18.66,1.94-30.27,21.21-23.26,38.62l19.13,47.5,930.28-100.5-25.11-59.34Z"/>
              <path class="cls-11" d="M2789.13,1267.66l-100.76-238.04-392.85,45.69c-16.86,1.96-26.95,19.74-19.99,35.22l109.64,243.94,381.48-47.8c18.58-2.33,29.78-21.77,22.48-39.01Z"/>
              <g>
                <path class="cls-24" d="M1978.02,1011.62c-11.55-14.47-34.59-36.52-70.55-41.72,7.02-8.45,10.57-19.89,9.03-32.49-3.19-26.01-26.87-47.1-52.88-47.1s-44.51,21.09-41.32,47.1c2.06,16.75,12.61,31.44,26.8,39.79-29.2,13.54-38.49,40.38-41.43,55.99-1.13,6.01,3.87,11.41,9.95,10.71l154.33-17.6c7.1-.81,10.52-9.11,6.07-14.69Z"/>
                <g>
                  <path class="cls-24" d="M2051.3,879.47l473.82-54.26c4.71-.54,9.2,2.1,11.02,6.48l52.48,126.42c2.71,6.52-1.58,13.82-8.6,14.62l-472.62,54.28c-4.68.54-9.15-2.07-10.99-6.4l-53.68-126.44c-2.77-6.53,1.52-13.9,8.57-14.7Z"/>
                  <g>
                    <path class="cls-24" d="M1812.47,1104.67l408.5-47.62c2.53-.3,4.95,1.14,5.92,3.5l15.88,38.99c1.41,3.47-.86,7.33-4.57,7.78l-409.67,49.81c-2.63.32-5.14-1.23-6.03-3.73l-14.71-41.18c-1.23-3.44,1.06-7.13,4.69-7.55Z"/>
                    <path class="cls-24" d="M1842.94,1182.24l408.5-47.62c2.53-.3,4.95,1.14,5.92,3.5l15.88,38.99c1.41,3.47-.86,7.33-4.57,7.78l-409.67,49.81c-2.63.32-5.14-1.23-6.03-3.73l-14.71-41.18c-1.23-3.44,1.06-7.13,4.69-7.55Z"/>
                    <path class="cls-24" d="M1873.42,1259.81l408.5-47.62c2.53-.3,4.95,1.14,5.92,3.5l15.88,38.99c1.41,3.47-.86,7.33-4.57,7.78l-409.67,49.81c-2.63.32-5.14-1.23-6.03-3.73l-14.71-41.18c-1.23-3.44,1.06-7.13,4.69-7.55Z"/>
                  </g>
                </g>
              </g>
            </g>
            <g>
              <path class="cls-16" d="M1799.01,790c0,60.55-50.47,102.54-112.72,93.79-62.25-8.75-112.72-64.92-112.72-125.47s50.47-102.54,112.72-93.79c62.25,8.75,112.72,64.92,112.72,125.47Z"/>
              <path class="cls-18" d="M1714.57,716.54c-9.49,30.73-15.86,62.3-19.17,94.27-15.14-13.35-28.95-28.18-45.38-40.04-4.83-3.48-9.44,4.52-4.66,7.97,18.26,13.18,33.13,30.33,50.52,44.56,3.18,2.61,7.53.88,7.88-3.27,2.91-34.31,9.56-68.16,19.72-101.05,1.76-5.69-7.15-8.13-8.9-2.45Z"/>
            </g>
          </g>
          <g>
            <path class="cls-12" d="M3114.29,1483.73l-564.26,65.62c-10.87,1.26-21.31-4.66-25.79-14.64l-179.44-399.25c-6.96-15.48,3.14-33.26,19.99-35.22l564.26-65.62c10.87-1.26,21.31,4.66,25.79,14.64l179.44,399.25c6.96,15.48-3.14,33.26-19.99,35.22Z"/>
            <path class="cls-28" d="M2954.84,1049.26c-4.49-9.98-14.92-15.91-25.79-14.64l-564.26,65.62c-16.86,1.96-26.95,19.74-19.99,35.22l15.34,34.12,615.86-73.27-21.15-47.05Z"/>
            <path class="cls-28" d="M2767.55,1482.94l-202.86,23.59c-3.91.45-7.66-1.68-9.27-5.26l-132.33-295.1c-2.5-5.57,1.13-11.96,7.19-12.66l202.86-23.59c3.91-.45,7.66,1.68,9.27,5.26l132.33,295.1c2.5,5.57-1.13,11.96-7.19,12.66Z"/>
            <path class="cls-10" d="M2832.02,1476.03l-77.39,9c-1.49.17-2.92-.64-3.54-2.01l-97.83-223.81c-.95-2.12.43-4.56,2.74-4.83l77.39-9c1.49-.17,2.92.64,3.54,2.01l97.83,223.81c.95,2.12-.43,4.56-2.74,4.83Z"/>
            <path class="cls-28" d="M2982.55,1456.64l-77.39,9c-1.49.17-2.92-.64-3.54-2.01l-55.87-127.9c-.95-2.12.43-4.56,2.74-4.83l77.39-9c1.49-.17,2.92.64,3.54,2.01l55.87,127.9c.95,2.12-.43,4.56-2.74,4.83Z"/>
            <path class="cls-18" d="M2829.5,1423.25c-4.29,0-8.66-.31-13.07-.93-49.09-6.9-89.02-51.43-89.02-99.27,0-22.94,9.05-43.43,25.47-57.71,17.26-15,40.38-21.35,65.1-17.88,49.09,6.9,89.02,51.43,89.02,99.27,0,22.94-9.05,43.43-25.47,57.71-14.18,12.32-32.3,18.81-52.02,18.81ZM2804.94,1257.62c-17.06,0-32.67,5.55-44.8,16.09-13.96,12.14-21.66,29.66-21.66,49.34,0,42.53,35.66,82.14,79.48,88.3,21.49,3.02,41.48-2.4,56.28-15.27,13.96-12.14,21.66-29.66,21.66-49.35,0-42.53-35.66-82.14-79.48-88.3-3.89-.55-7.72-.82-11.49-.82Z"/>
            <path class="cls-18" d="M2822.36,1375.13c-1.95,0-3.93-.14-5.94-.42-22.09-3.1-40.06-23.19-40.06-44.78,0-10.56,4.18-20,11.78-26.61,7.94-6.91,18.54-9.84,29.83-8.25,22.09,3.1,40.06,23.19,40.06,44.78,0,10.56-4.18,20-11.78,26.61-6.53,5.68-14.86,8.67-23.89,8.67ZM2812.07,1305.74c-6.38,0-12.18,2.05-16.67,5.95-5.14,4.47-7.97,10.94-7.97,18.24,0,16.27,13.69,31.44,30.53,33.8,8.07,1.13,15.53-.87,21.02-5.64,5.14-4.47,7.96-10.94,7.96-18.24,0-16.27-13.69-31.44-30.53-33.8-1.47-.21-2.93-.31-4.35-.31Z"/>
          </g>
        </g>
        <g>
          <g>
            <g>
              <path class="cls-12" d="M1315.11,2193.63l-603.89,97.07c-12.42,2-24.45-5.37-28.32-17.34l-167.43-518.23c-4.88-15.11,5.08-30.96,20.81-33.11l605.65-82.89c12.2-1.67,23.84,5.61,27.69,17.3l165.66,504.04c4.9,14.9-4.69,30.65-20.18,33.14Z"/>
              <path class="cls-28" d="M1169.63,1656.45c-3.84-11.69-15.49-18.97-27.69-17.31l-605.65,82.89c-15.73,2.15-25.69,18-20.81,33.11l20.27,62.74,656.21-93.51-22.32-67.92Z"/>
            </g>
            <g>
              <path class="cls-14" d="M728.56,2003.39c-1.95,0-3.58-1.53-3.69-3.5-.11-2.04,1.46-3.78,3.5-3.88,6.12-.32,12.05-1.47,17.63-3.41,1.93-.67,4.03.35,4.7,2.27.67,1.93-.35,4.03-2.27,4.7-6.23,2.17-12.85,3.45-19.67,3.81-.07,0-.13,0-.2,0ZM709.6,2001.97c-.24,0-.48-.02-.72-.07-6.44-1.28-12.8-3.33-18.91-6.1-1.86-.84-2.68-3.03-1.84-4.89.84-1.86,3.03-2.68,4.89-1.84,5.59,2.53,11.41,4.41,17.3,5.58,2,.4,3.3,2.34,2.9,4.34-.35,1.76-1.89,2.97-3.62,2.97ZM763.98,1990.89c-1.12,0-2.23-.51-2.96-1.48-1.23-1.63-.9-3.95.74-5.17,4.8-3.6,8.94-7.91,12.33-12.82,1.16-1.68,3.46-2.1,5.14-.94,1.68,1.16,2.1,3.46.94,5.14-3.84,5.56-8.54,10.45-13.97,14.53-.67.5-1.44.74-2.22.74ZM675.11,1986.44c-.77,0-1.54-.24-2.21-.73-5.29-3.95-10.19-8.47-14.54-13.44-1.34-1.53-1.19-3.87.34-5.21,1.53-1.35,3.87-1.19,5.21.34,4.02,4.58,8.53,8.75,13.41,12.39,1.64,1.22,1.97,3.53.75,5.17-.72.97-1.84,1.48-2.96,1.48ZM785.29,1960.08c-.35,0-.7-.05-1.05-.15-1.96-.58-3.07-2.63-2.49-4.59,1.66-5.63,2.51-11.6,2.51-17.75,0-.65,0-1.3-.03-1.95-.06-2.04,1.55-3.74,3.59-3.8,2.03-.08,3.74,1.55,3.8,3.59.02.72.03,1.44.03,2.16,0,6.86-.95,13.54-2.81,19.85-.48,1.61-1.95,2.65-3.54,2.65ZM650.2,1957.96c-1.3,0-2.57-.69-3.24-1.91-3.25-5.9-5.79-12.09-7.54-18.39-.55-1.97.61-4,2.57-4.55,1.96-.54,4,.61,4.55,2.57,1.59,5.75,3.91,11.4,6.89,16.8.98,1.79.33,4.03-1.45,5.02-.57.31-1.18.46-1.78.46ZM640.25,1921.55c-2.02,0-3.66-1.62-3.69-3.64,0-.36,0-.71,0-1.07,0-6.49.85-12.82,2.51-18.81.55-1.97,2.58-3.12,4.55-2.57,1.97.55,3.12,2.58,2.57,4.55-1.49,5.35-2.24,11.01-2.24,16.82,0,.32,0,.65,0,.97.03,2.04-1.6,3.72-3.64,3.75h-.05ZM784.93,1920.46c-1.6,0-3.07-1.05-3.55-2.66-1.67-5.73-4.06-11.36-7.1-16.72-1.01-1.77-.38-4.03,1.39-5.03,1.77-1.01,4.03-.38,5.04,1.39,3.32,5.86,5.93,12.02,7.76,18.3.57,1.96-.55,4.01-2.51,4.58-.34.1-.69.15-1.04.15ZM766.38,1887.51c-1.01,0-2.02-.41-2.75-1.23-4.07-4.54-8.63-8.66-13.55-12.24-1.65-1.2-2.01-3.51-.81-5.16,1.2-1.65,3.51-2.01,5.16-.81,5.34,3.89,10.28,8.36,14.7,13.28,1.36,1.52,1.24,3.85-.28,5.22-.7.63-1.59.94-2.46.94ZM650.49,1885.44c-.7,0-1.41-.2-2.04-.62-1.7-1.13-2.16-3.42-1.03-5.12,3.75-5.63,8.36-10.6,13.72-14.77,1.61-1.25,3.93-.96,5.18.65,1.25,1.61.96,3.93-.65,5.18-4.73,3.68-8.8,8.06-12.11,13.03-.71,1.07-1.88,1.65-3.08,1.65ZM735.77,1865.26c-.5,0-1-.1-1.48-.31-5.62-2.46-11.46-4.27-17.36-5.37-2.01-.37-3.33-2.3-2.96-4.31.37-2,2.3-3.33,4.31-2.96,6.46,1.2,12.84,3.17,18.98,5.86,1.87.82,2.72,3,1.9,4.87-.61,1.39-1.96,2.21-3.38,2.21ZM680.03,1862.37c-1.51,0-2.92-.93-3.47-2.42-.7-1.92.28-4.04,2.2-4.74,6.2-2.27,12.8-3.65,19.61-4.11,2.04-.14,3.8,1.4,3.93,3.44.14,2.04-1.4,3.8-3.44,3.93-6.12.41-12.03,1.65-17.57,3.68-.42.15-.85.23-1.27.23Z"/>
              <path class="cls-14" d="M925.95,1973.51c-1.95,0-3.58-1.53-3.69-3.5-.11-2.04,1.46-3.78,3.49-3.88,6.13-.32,12.06-1.47,17.63-3.41,1.93-.67,4.03.35,4.7,2.27.67,1.93-.35,4.03-2.27,4.7-6.23,2.17-12.85,3.45-19.67,3.81-.07,0-.13,0-.2,0ZM906.99,1972.09c-.24,0-.48-.02-.72-.07-6.44-1.28-12.8-3.33-18.9-6.1-1.86-.84-2.68-3.03-1.84-4.89.84-1.86,3.03-2.68,4.89-1.84,5.59,2.53,11.41,4.41,17.3,5.58,2,.4,3.3,2.34,2.9,4.34-.35,1.76-1.89,2.97-3.62,2.97ZM961.38,1961.01c-1.12,0-2.23-.51-2.96-1.48-1.22-1.63-.89-3.95.74-5.17,4.8-3.6,8.94-7.91,12.33-12.82,1.16-1.68,3.46-2.1,5.14-.94,1.68,1.16,2.1,3.46.94,5.14-3.84,5.56-8.54,10.45-13.98,14.52-.66.5-1.44.74-2.21.74ZM872.51,1956.57c-.77,0-1.54-.24-2.21-.73-5.29-3.95-10.19-8.47-14.54-13.44-1.34-1.53-1.19-3.87.34-5.21,1.53-1.35,3.87-1.19,5.21.34,4.02,4.58,8.53,8.75,13.41,12.39,1.64,1.22,1.97,3.53.75,5.17-.72.97-1.84,1.49-2.96,1.49ZM982.69,1930.21c-.35,0-.7-.05-1.05-.15-1.96-.58-3.07-2.63-2.49-4.59,1.66-5.63,2.51-11.6,2.51-17.75,0-.65,0-1.3-.03-1.95-.06-2.04,1.55-3.74,3.59-3.8,2.05-.04,3.74,1.55,3.8,3.59.02.72.03,1.44.03,2.16,0,6.86-.95,13.54-2.81,19.85-.48,1.61-1.95,2.65-3.54,2.65ZM847.6,1928.08c-1.3,0-2.57-.69-3.24-1.91-3.25-5.9-5.79-12.09-7.54-18.39-.55-1.97.61-4,2.57-4.55,1.96-.55,4,.61,4.55,2.57,1.59,5.75,3.91,11.4,6.89,16.8.98,1.79.33,4.03-1.45,5.02-.57.31-1.18.46-1.78.46ZM837.65,1891.67c-2.02,0-3.66-1.62-3.69-3.64,0-.36,0-.71,0-1.07,0-6.49.85-12.81,2.51-18.81.55-1.96,2.58-3.12,4.55-2.57,1.97.55,3.12,2.58,2.57,4.55-1.49,5.35-2.24,11.01-2.24,16.83,0,.32,0,.65,0,.97.03,2.04-1.6,3.72-3.64,3.75h-.05ZM982.33,1890.59c-1.6,0-3.07-1.05-3.54-2.66-1.67-5.73-4.06-11.36-7.1-16.72-1.01-1.77-.38-4.03,1.39-5.03,1.78-1.01,4.03-.38,5.04,1.39,3.32,5.86,5.93,12.02,7.76,18.3.57,1.96-.55,4.01-2.51,4.58-.34.1-.69.15-1.04.15ZM963.78,1857.64c-1.01,0-2.02-.41-2.75-1.23-4.07-4.54-8.63-8.66-13.55-12.24-1.65-1.2-2.01-3.51-.81-5.16,1.2-1.65,3.51-2.01,5.16-.81,5.34,3.89,10.28,8.36,14.7,13.28,1.36,1.52,1.24,3.85-.28,5.22-.71.63-1.59.94-2.46.94ZM847.89,1855.56c-.7,0-1.41-.2-2.04-.62-1.7-1.13-2.16-3.42-1.03-5.12,3.75-5.63,8.36-10.6,13.72-14.77,1.61-1.25,3.93-.96,5.18.65,1.25,1.61.96,3.93-.65,5.18-4.73,3.68-8.8,8.06-12.11,13.03-.71,1.07-1.88,1.65-3.08,1.65ZM933.17,1835.38c-.5,0-1-.1-1.48-.31-5.62-2.46-11.46-4.27-17.36-5.37-2.01-.37-3.33-2.3-2.96-4.31.37-2,2.3-3.33,4.31-2.96,6.46,1.2,12.84,3.17,18.98,5.86,1.87.82,2.72,3,1.9,4.87-.61,1.39-1.96,2.21-3.38,2.21ZM877.42,1832.49c-1.51,0-2.92-.93-3.47-2.42-.7-1.92.28-4.04,2.2-4.74,6.2-2.27,12.8-3.65,19.61-4.11,2.03-.13,3.8,1.4,3.93,3.44.14,2.04-1.4,3.8-3.44,3.93-6.12.41-12.03,1.65-17.57,3.68-.42.15-.85.23-1.27.23Z"/>
              <path class="cls-14" d="M1134.02,1946.84c-1.95,0-3.58-1.53-3.69-3.5-.11-2.04,1.46-3.78,3.5-3.88,6.12-.32,12.05-1.47,17.63-3.41,1.93-.67,4.03.35,4.7,2.27.67,1.93-.35,4.03-2.27,4.7-6.23,2.17-12.85,3.45-19.67,3.81-.07,0-.13,0-.2,0ZM1115.06,1945.42c-.24,0-.48-.02-.72-.07-6.44-1.28-12.8-3.33-18.9-6.1-1.86-.84-2.68-3.03-1.84-4.89.84-1.86,3.03-2.68,4.89-1.84,5.59,2.53,11.41,4.41,17.3,5.58,2,.4,3.3,2.34,2.9,4.34-.35,1.76-1.89,2.97-3.62,2.97ZM1169.44,1934.34c-1.12,0-2.23-.51-2.96-1.48-1.23-1.63-.9-3.95.74-5.17,4.8-3.6,8.94-7.91,12.33-12.82,1.16-1.68,3.46-2.1,5.14-.94,1.68,1.16,2.1,3.46.94,5.14-3.84,5.56-8.54,10.45-13.97,14.53-.67.5-1.44.74-2.22.74ZM1080.57,1929.89c-.77,0-1.54-.24-2.21-.73-5.29-3.95-10.19-8.47-14.54-13.44-1.34-1.53-1.19-3.87.34-5.21,1.53-1.35,3.87-1.19,5.21.34,4.02,4.58,8.53,8.75,13.41,12.39,1.64,1.22,1.97,3.53.75,5.17-.73.97-1.84,1.49-2.96,1.49ZM1190.76,1903.53c-.35,0-.7-.05-1.05-.15-1.96-.58-3.07-2.63-2.49-4.59,1.66-5.63,2.51-11.6,2.51-17.75,0-.65,0-1.3-.03-1.95-.06-2.04,1.55-3.74,3.59-3.8,2.04-.07,3.74,1.55,3.8,3.59.02.72.03,1.44.03,2.16,0,6.86-.95,13.54-2.81,19.85-.48,1.61-1.95,2.65-3.54,2.65ZM1055.66,1901.4c-1.3,0-2.57-.69-3.24-1.91-3.25-5.9-5.79-12.09-7.54-18.39-.55-1.97.61-4,2.57-4.55,1.97-.54,4,.61,4.55,2.57,1.59,5.75,3.91,11.4,6.89,16.8.98,1.79.33,4.03-1.45,5.02-.57.31-1.18.46-1.78.46ZM1045.71,1865c-2.02,0-3.66-1.62-3.69-3.64,0-.36,0-.71,0-1.07,0-6.49.85-12.82,2.51-18.81.55-1.97,2.58-3.12,4.55-2.57,1.97.55,3.12,2.58,2.57,4.55-1.49,5.35-2.24,11.01-2.24,16.82,0,.32,0,.65,0,.97.03,2.04-1.6,3.72-3.64,3.75h-.05ZM1190.39,1863.91c-1.6,0-3.07-1.05-3.54-2.66-1.67-5.73-4.06-11.36-7.1-16.72-1.01-1.77-.38-4.03,1.39-5.03,1.77-1.01,4.03-.38,5.04,1.39,3.32,5.86,5.93,12.02,7.76,18.3.57,1.96-.55,4.01-2.51,4.58-.35.1-.69.15-1.04.15ZM1171.84,1830.96c-1.01,0-2.02-.41-2.75-1.23-4.07-4.54-8.63-8.66-13.55-12.24-1.65-1.2-2.01-3.51-.81-5.16,1.2-1.65,3.51-2.01,5.16-.81,5.34,3.89,10.28,8.36,14.7,13.28,1.36,1.52,1.24,3.85-.28,5.22-.7.63-1.59.94-2.46.94ZM1055.95,1828.89c-.7,0-1.41-.2-2.04-.62-1.7-1.13-2.16-3.42-1.03-5.12,3.75-5.63,8.36-10.6,13.72-14.77,1.61-1.25,3.93-.96,5.18.65,1.25,1.61.96,3.93-.65,5.18-4.73,3.68-8.8,8.06-12.11,13.03-.71,1.07-1.88,1.65-3.08,1.65ZM1141.23,1808.71c-.5,0-1-.1-1.48-.31-5.62-2.46-11.46-4.27-17.36-5.37-2.01-.37-3.33-2.3-2.96-4.31.37-2,2.3-3.33,4.31-2.96,6.46,1.2,12.84,3.17,18.98,5.86,1.87.82,2.72,3,1.9,4.87-.61,1.39-1.96,2.21-3.38,2.21ZM1085.49,1805.82c-1.51,0-2.92-.93-3.47-2.42-.7-1.92.28-4.04,2.2-4.74,6.2-2.27,12.8-3.65,19.61-4.11,2.03-.13,3.8,1.4,3.93,3.44.14,2.04-1.4,3.8-3.44,3.93-6.12.41-12.03,1.65-17.57,3.68-.42.15-.85.23-1.27.23Z"/>
              <path class="cls-14" d="M694.08,2112.11c-4.47,0-8.4-3.25-9.11-7.81-.79-5.04,2.65-9.76,7.69-10.55l530.09-83.11c5.03-.79,9.76,2.65,10.55,7.69.79,5.04-2.65,9.76-7.69,10.55l-530.09,83.11c-.48.08-.97.11-1.44.11Z"/>
              <path class="cls-14" d="M712.09,2188.29c-4.47,0-8.4-3.25-9.11-7.81-.79-5.04,2.65-9.76,7.69-10.55l530.09-83.11c5.04-.79,9.76,2.65,10.55,7.69.79,5.04-2.65,9.76-7.69,10.55l-530.09,83.11c-.48.08-.97.11-1.44.11Z"/>
            </g>
          </g>
          <g>
            <path class="cls-16" d="M978.92,1441c0,106.17-88.49,179.8-197.65,164.46-109.16-15.34-197.65-113.84-197.65-220.01s88.49-179.8,197.65-164.46c109.16,15.34,197.65,113.84,197.65,220.01Z"/>
            <g>
              <path class="cls-18" d="M727.44,1448.61c-.69-1.14-1.76-2.03-3.21-2.69l-47.91-22.42,42.68-30.86c1.17-.92,2.01-1.96,2.53-3.1.52-1.14.72-2.29.6-3.42-.24-2.39-1.47-4.59-3.69-6.61-2.22-2.02-4.47-2.91-6.74-2.68-1.14.12-2.34.5-3.59,1.14-1.26.65-2.58,1.5-3.97,2.56l-52.25,37.55c-1.29.94-2.2,2.15-2.74,3.64-.54,1.49-.73,3.04-.57,4.63.15,1.48.64,2.9,1.47,4.25.83,1.35,1.97,2.42,3.43,3.19l58.79,26.98c1.69.75,3.28,1.42,4.78,2.02,1.5.6,2.87.83,4.12.7,1.93-.2,3.73-1.44,5.4-3.74,1.66-2.3,2.36-4.81,2.08-7.54-.13-1.25-.54-2.45-1.23-3.58Z"/>
              <path class="cls-18" d="M813.83,1318.25c-2.15-1.33-4.19-1.9-6.12-1.71-1.48.15-2.86.75-4.13,1.8-1.27,1.05-2.23,2.41-2.86,4.09l-54.93,148.91c-.54,1.44-.75,2.84-.61,4.2.25,2.5,1.49,4.45,3.7,5.83,2.21,1.38,4.28,1.98,6.22,1.78,1.59-.16,3-.76,4.21-1.81,1.22-1.04,2.14-2.4,2.78-4.08l54.76-148.89c.54-1.44.75-2.84.61-4.2-.27-2.62-1.47-4.59-3.62-5.93Z"/>
              <path class="cls-18" d="M916.44,1400.55c-.16-1.59-.66-3.07-1.48-4.42-.83-1.35-1.96-2.36-3.41-3.02l-58.79-26.98c-1.69-.75-3.28-1.42-4.78-2.02-1.5-.59-2.87-.83-4.12-.7-1.82.19-3.59,1.43-5.31,3.73-1.72,2.31-2.44,4.82-2.17,7.55.13,1.25.53,2.45,1.23,3.58.69,1.14,1.76,2.04,3.21,2.69l47.91,22.42-42.68,30.87c-1.17.92-2.02,1.93-2.54,3.02-.52,1.09-.72,2.26-.59,3.51.24,2.39,1.47,4.59,3.69,6.61,2.21,2.02,4.46,2.91,6.74,2.68,1.25-.13,2.47-.54,3.67-1.24,1.19-.69,2.49-1.52,3.89-2.46l52.25-37.55c1.28-.93,2.2-2.15,2.74-3.64.54-1.49.73-3.03.57-4.63Z"/>
            </g>
          </g>
        </g>
      </g>
      <g>
        <path class="cls-4" d="M1506.13,2380.72l565.37,84.39c6.88,1.35,14.01,1.27,20.96-.23l716.92-154.79c7.95-1.72,13.77-8.78,13.88-16.86l.19-12.62-446.54-61.15-880.37,132.77-.24,16.29c-.09,5.97,4,11.05,9.82,12.2Z"/>
        <path class="cls-29" d="M1496.55,2352.23l575.34,86.34c6.88,1.35,14.01,1.27,20.96-.23l730.6-157.74-438.78-85.63c-4.85-1.35-9.98-1.58-15.01-.67l-873.11,157.92Z"/>
      </g>
    </g>
  </g>
  <g>
    <g>
      <g>
        <path class="cls-4" d="M3428.34,2649.88s-281.12-54.37-396.49-37.13c-80.87,12.08-143.21,49.06-181.67,122l541.03,125.97,37.13-210.84Z"/>
        <g>
          <g>
            <path class="cls-29" d="M2592.69,2826.28s-26.29,54.34-26.29,250.59-3.98,301.13-3.98,301.13h306.32s39.78-204.32,41.11-234.82c1.33-30.5-216.61-314.21-317.16-316.9Z"/>
            <path class="cls-13" d="M2900.77,3205.08c5.01-29.19,8.69-52.99,9.08-61.91.47-10.73-26.24-52.84-65.41-103.01l-110.8-10.77s61.57,81.01,167.14,175.69Z"/>
          </g>
          <path class="cls-29" d="M3478.63,2807.71s-509.28-98.14-620.68-111.41c-111.41-13.26-225.46,2.65-265.25,129.97-39.79,127.32,307.69,371.35,567.64,392.57,259.94,21.22,318.3-411.14,318.3-411.14Z"/>
        </g>
      </g>
      <g>
        <path class="cls-23" d="M3232.58,1809.15s-170.84-205.93-218.86-224.4c-41.52-15.97-115.13,1-138.57-36.84-6.06-9.78-8.05-21.53-6.09-32.86,3.24-18.78,10.27-56.87,15.77-67.86,7.39-14.78-45.25-49.87-77.57-92.35-31.16-40.95,18.68-32.94,37.86-12.93,21.24,22.16,80.34,72.03,95.12,75.73,14.78,3.69,10.47-32.71,40.63-30.48,24.93,1.85,35.09-25.86,53.56-11.08,18.47,14.78,57.26,93.27,90.5,122.83,33.25,29.55,243.8,144.07,243.8,144.07,0,0-77.05,121.86-136.15,166.18Z"/>
        <g>
          <g>
            <path class="cls-21" d="M3561.86,1357.3s-4.84,23.93-7.5,46.47c-1.62,13.71-6.35,27.23-17.39,35.25-29.18,21.22-216.56,103.8-249.33,129.97-50.24,40.11-101.54,367.75-37.81,556.16,18.05,53.36,84.88,143.26,94.21,205.04,17.93,118.8-4.39,263.57-16.6,331.63-18.57,103.45-71.62,230.77,53.05,307.69,124.67,76.92,705.56,15.91,811.67-129.97,0,0,13.26-811.67-21.22-1076.92-34.48-265.25-87.53-358.09-228.11-368.7-84.86-6.4-125.26-5.08-143.96-24.02-12.28-12.44-15.19-33.62-27.43-70.08l-209.56,57.47Z"/>
            <path class="cls-21" d="M4170.93,1762.63c-34.48-265.25-87.53-358.09-228.11-368.7-84.86-6.4-125.26-5.08-143.96-24.02-12.28-12.44-15.19-33.62-27.43-70.08l-51.1,14.01c3.11,44.06,9.76,87.61,21.31,127.81,53.56,186.55,96.04,308.45,210.56,378.63,50.08,30.69,139.72,37.37,227.06,28.05-2.41-32.46-5.17-61.38-8.33-85.71Z"/>
          </g>
          <g>
            <path class="cls-23" d="M3537.69,1438.48c48.86-2.13,163.1-12.29,274.25-59.82-31.52-12.74-77.7-296.46-77.7-345.2l-188.39,253.04s20.25,130.29-8.16,151.98Z"/>
            <path class="cls-31" d="M3735.45,1053.27c-16.56,95.14-27.68,234.5-2.49,353.37,25.89-7.48,52.53-16.67,78.99-27.98-28.53-11.53-69.06-245.02-76.5-325.39Z"/>
            <g>
              <path class="cls-23" d="M3479.33,725.12s-91.25,46.02-117.81,136.57c-23.32,79.53-51.95,187.76-39.66,340.8,12.3,153.04,130.02,200.86,282.62,105.29,152.6-95.57,245.18-313.03,196.65-452.25-48.53-139.22-223.6-174.26-321.81-130.42Z"/>
              <path class="cls-2" d="M3375.62,829.98c21.59,17.42,170.23,226.56,165.61,288.44-4.04,54.14,71.53,114.28,99.39,163.56,6.74,11.92,20.07,14.99,33.49,17.75,43.51,8.93,93.38,16.32,125.7-26.16,0,0,93.31-219.77,78.98-323.22-12.48-90.09-53.12-251.2-267.37-260.43-154.76-6.67-223.3,74.18-241.99,111.15-5.01,9.9-2.44,21.94,6.19,28.91Z"/>
              <g>
                <path class="cls-23" d="M3516.68,1132.89c1.39-17.09,6.72-33.63,15.31-48.47,14.1-24.35,30.83-53.7,63.26-47.12,49.01,9.95,45.3,92.1,7.73,122.7-35.78,29.14-93.05,55.72-86.3-27.12Z"/>
                <path class="cls-31" d="M3601.61,1112.65c-13.49-10.34-30.31-3.42-39.25,1.72,8.88-17.79,22.47-38.02,38.08-37.11.33.02.67.05,1.01.09,1.46.16,2.77-.87,2.94-2.33.17-1.45-.87-2.77-2.33-2.94-32.27-3.74-54.69,63.74-55.62,66.62-.45,1.39.31,2.89,1.7,3.34.22.07.45.11.67.13,1.17.07,2.29-.66,2.67-1.83.07-.22,2.51-7.58,6.76-17.2.4-.08.79-.23,1.13-.5.23-.18,23.31-17.82,39.02-5.78,1.16.89,2.83.67,3.72-.49.89-1.16.67-2.83-.49-3.72Z"/>
              </g>
              <path class="cls-20" d="M3782.27,832.14s1.85,68.34-20.32,116.36c-17.12,37.09-51.87,199.8-42.12,357.91,29.72,1.5,58.67-4.82,79.98-32.84,0,0,93.31-219.77,78.98-323.22-4.59-33.1-12.97-75.79-32.37-117-39.06-2.27-64.15-1.21-64.15-1.21Z"/>
            </g>
            <path class="cls-21" d="M3684.84,695.44s-38.79,41.56-2.77,85.89c36.02,44.33,58.19,60.96,77.58,83.12,19.4,22.17,66.5,22.17,94.21,5.54,27.71-16.62,33.25-36.02,13.85-74.81-19.4-38.79-149.62-163.48-182.87-99.75Z"/>
            <path class="cls-2" d="M3771.55,764.95c-20.11-19.38-18.31-52.25,3.59-69.59,33.3-26.37,83.71-52.87,147.98-47.02,121.91,11.08,166.25,171.79,149.62,285.39-16.62,113.6-16.62,315.87,63.73,410.07,80.35,94.21,224.43,326.95,149.62,457.18-74.81,130.23-515.36-169.02-523.68-504.28-8.31-335.26,63.73-435.01,36.02-493.2-8.23-17.27-17.67-29.66-26.89-38.55Z"/>
          </g>
          <path class="cls-21" d="M3232.63,2053.73c4.13,25.42,9.78,49.48,17.2,71.42,18.05,53.36,84.88,143.26,94.21,205.04.33,2.2.65,4.41.95,6.62,102.72-203.46,120.96-474.88,120.96-474.88l-233.32,191.8Z"/>
        </g>
        <g>
          <path class="cls-23" d="M2899.02,2288.63s-216.37,6.37-346.35,24.94c-129.97,18.57-263.08,11.31-286.95-9.91-23.87-21.22-98.64-49.28-167.61-36.01-21.22,7.96-24.46,23.13-43.03,23.13s-119.36,21.22-119.36,42.44c1.71,28.62,74.27-2.65,92.84,2.65s71.62,68.97,114.06,79.58c42.44,10.61,58.36,5.31,71.62,7.96,13.26,2.65,504.12,99.66,825.53,55.33,55.7-31.83-93.01-105.22-140.75-190.1Z"/>
          <path class="cls-21" d="M3343.49,1559.31c-28.1-3.47-55.97,8.06-74.21,29.71-26.82,31.85-77.76,102.33-116.91,216.05-55.7,161.8-146.59,333.3-175.76,381.05-29.18,47.74-133.35,119.45-141.31,188.41-7.96,68.97,54.48,98.97,152.62,109.58,98.14,10.61,158.29-72.72,275.86-201.59,137.93-151.19,238.73-368.7,212.2-509.28-21.31-112.97-63.18-205.38-132.49-213.93Z"/>
          <path class="cls-21" d="M2897.56,2284.8s-216.1,10.16-301.06,22.16c0,0-52.64,69.26-17.55,169.92,0,0,365.71,47.1,460.83,1.85l-142.22-193.93Z"/>
        </g>
      </g>
    </g>
    <g>
      <path class="cls-8" d="M3553.43,1746.4s-132.98,336.15-155.15,668.61c-22.16,332.46-96.04,557.79-229.03,657.53-132.98,99.74-295.52,51.72-380.48,62.8,0,0-3.69,70.19,7.39,92.35,11.08,22.16,125.6,113.37,251.19,150.31h1123.61s88.02-157.7,106.49-368.25c18.47-210.56-40.63-410.03,48.02-749.88,88.66-339.85,77.57-517.16,73.88-616.9,0,0-432.2-29.55-845.92,103.43Z"/>
      <path class="cls-15" d="M3553.43,1746.4s-18.41,46.54-42.67,122.09c104.85-18.01,594.99-99.09,890.71-93.63,1.24-55.14-.86-98-2.12-131.89,0,0-432.2-29.55-845.92,103.43Z"/>
      <path class="cls-1" d="M2804.75,3154.74c-9.44,0-17.09-7.65-17.09-17.08v-217.05c0-47.23,20.97-91.46,57.53-121.36,36.56-29.89,84.08-41.66,130.36-32.28l381.84,78.29c9.24,1.9,15.2,10.92,13.3,20.17-1.89,9.24-10.93,15.2-20.17,13.3l-381.8-78.28c-36.16-7.33-73.32,1.88-101.91,25.26-28.59,23.38-44.99,57.97-44.99,94.9v217.05c0,9.44-7.65,17.08-17.09,17.08Z"/>
      <path class="cls-1" d="M3553.43,1746.4s-132.98,336.15-155.15,668.61c-22.16,332.46-96.04,557.79-229.03,657.53-132.98,99.74-295.52,51.72-380.48,62.8,0,0-.96,18.27-.43,39.12,429.53,82.49,525.7-89.63,558.22-201.65,33.25-114.51,96.04-417.42,118.21-646.45,18.97-195.99,119.08-510.98,147.57-597.79-19.65,5.59-39.3,11.53-58.92,17.84Z"/>
      <g>
        <path class="cls-15" d="M3631.39,2104.7c-19.69,0-30.78-.19-31.11-.19-2.3-.04-4.12-1.93-4.08-4.23.04-2.27,1.89-4.08,4.15-4.08,1.04.02,98.31,1.63,233.53-4.89,124.75-6.02,308.24-20.38,473.94-54.66,2.25-.47,4.45.98,4.91,3.23.47,2.25-.98,4.45-3.23,4.91-166.24,34.4-350.22,48.8-475.29,54.83-90.22,4.35-163.59,5.08-202.83,5.08Z"/>
        <path class="cls-15" d="M3718.53,2385.04c-88.12,0-145.42-3.5-146.13-3.55-2.29-.14-4.03-2.12-3.89-4.41.14-2.29,2.13-4.02,4.41-3.89.89.06,90.01,5.5,217.18,2.76,117.32-2.53,291.94-12.73,457.58-47,2.26-.46,4.45.98,4.91,3.23.47,2.25-.98,4.45-3.23,4.91-166.29,34.4-341.49,44.64-459.18,47.17-25.55.55-49.57.77-71.66.77Z"/>
        <path class="cls-15" d="M3831.25,2676.41c-29.71,0-57.52-.51-82.83-1.3-131.65-4.11-225.24-16.53-226.17-16.65-2.27-.31-3.87-2.4-3.57-4.67.31-2.28,2.41-3.88,4.67-3.57.93.12,94.19,12.49,225.43,16.59,121.06,3.77,300.11,1.09,465.66-33.16,2.26-.47,4.45.98,4.91,3.23.47,2.25-.98,4.45-3.23,4.91-131.74,27.26-271.9,34.62-384.88,34.62Z"/>
        <path class="cls-15" d="M3911.07,2997.76c-70.77,0-144.19-4.46-218.62-13.28-139.99-16.6-236.3-43.29-237.26-43.55-2.21-.62-3.5-2.91-2.88-5.12.62-2.21,2.91-3.5,5.12-2.88.95.27,96.77,26.81,236.16,43.32,128.55,15.23,321.51,24.8,510.76-16.09,2.24-.49,4.46.94,4.94,3.18.48,2.24-.94,4.46-3.18,4.94-84.11,18.17-175.92,28.04-272.9,29.33-7.35.1-14.74.15-22.14.15Z"/>
        <path class="cls-15" d="M3891.84,3304.41c-25.29,0-50.98-.56-77.02-1.69-82.28-3.57-168.26-12.78-255.55-27.36-148.63-24.82-250.96-57.1-251.98-57.42-2.19-.7-3.4-3.03-2.7-5.22.69-2.19,3.03-3.4,5.22-2.7,1.01.32,102.89,32.44,250.98,57.17,136.58,22.8,341.53,43.79,542.25,14.3,2.28-.34,4.38,1.24,4.72,3.51.33,2.27-1.24,4.38-3.51,4.72-66.59,9.78-137.77,14.7-212.41,14.7Z"/>
      </g>
    </g>
  </g>
</svg>